<?xml version="1.0" standalone="no"?>
<!DOCTYPE svg PUBLIC "-//W3C//DTD SVG 20010904//EN"
 "http://www.w3.org/TR/2001/REC-SVG-20010904/DTD/svg10.dtd">
<svg version="1.0" xmlns="http://www.w3.org/2000/svg"
 width="148.000000pt" height="148.000000pt" viewBox="0 0 148.000000 148.000000"
 preserveAspectRatio="xMidYMid meet">
<metadata>
Created by potrace 1.16, written by Peter Selinger 2001-2019
</metadata>
<g transform="translate(0.000000,148.000000) scale(0.100000,-0.100000)"
fill="#6b6f77" stroke="none">
<path d="M175 1240 c-89 -36 -96 -159 -12 -210 31 -19 54 -20 577 -20 523 0
546 1 577 20 34 21 63 66 63 100 0 34 -29 79 -63 100 -31 19 -53 20 -577 19
-300 0 -554 -4 -565 -9z"/>
<path d="M163 830 c-34 -21 -63 -66 -63 -100 0 -34 29 -79 63 -100 31 -19 54
-20 577 -20 523 0 546 1 577 20 34 21 63 66 63 100 0 34 -29 79 -63 100 -31
19 -54 20 -577 20 -523 0 -546 -1 -577 -20z"/>
<path d="M163 430 c-34 -21 -63 -66 -63 -100 0 -34 29 -79 63 -100 31 -19 54
-20 577 -20 523 0 546 1 577 20 34 21 63 66 63 100 0 34 -29 79 -63 100 -31
19 -54 20 -577 20 -523 0 -546 -1 -577 -20z"/>
</g>
</svg>
