<?xml version="1.0" standalone="no"?>
<!DOCTYPE svg PUBLIC "-//W3C//DTD SVG 20010904//EN"
 "http://www.w3.org/TR/2001/REC-SVG-20010904/DTD/svg10.dtd">
<svg version="1.0" xmlns="http://www.w3.org/2000/svg"
 width="480.000000pt" height="240.000000pt" viewBox="0 0 480.000000 240.000000"
 preserveAspectRatio="xMidYMid meet">
<metadata>
Created by potrace 1.16, written by Peter Selinger 2001-2019
</metadata>
<g transform="translate(0.000000,240.000000) scale(0.100000,-0.100000)"
fill="#6b6f77" stroke="none">
<path d="M774 1832 c-137 -41 -251 -138 -316 -269 -38 -76 -41 -90 -46 -183
-6 -135 21 -230 95 -333 36 -48 107 -113 132 -119 8 -2 22 -10 31 -19 24 -23
133 -57 205 -64 95 -10 285 31 269 57 -4 6 -10 5 -15 -3 -6 -9 -9 -10 -9 -2 0
6 14 21 30 33 33 23 39 40 14 40 -8 0 -13 -4 -9 -9 3 -5 1 -12 -4 -16 -6 -3
-8 4 -6 16 4 18 0 21 -25 17 -17 -3 -27 0 -23 6 4 6 -1 7 -13 2 -10 -4 -15 -3
-10 1 4 4 22 8 39 8 18 0 32 5 33 13 4 33 6 35 15 14 5 -13 7 -27 4 -32 -3 -4
1 -10 9 -13 7 -3 16 -14 18 -25 4 -15 2 -19 -9 -15 -8 3 -13 0 -11 -8 2 -9 -4
-13 -17 -11 -16 2 -17 1 -5 -7 10 -7 22 -5 41 7 75 49 135 118 119 137 -12 15
-2 48 12 39 5 -3 7 -13 4 -23 -4 -11 -2 -10 9 4 40 51 74 287 45 305 -15 9
-422 12 -445 4 -11 -5 -15 -22 -15 -65 l0 -59 170 0 170 0 -7 -32 c-12 -67
-46 -129 -94 -172 -31 -28 -44 -46 -37 -49 7 -3 0 -5 -17 -5 -16 0 -55 -8 -85
-17 -127 -38 -269 1 -368 102 -51 52 -53 53 -61 30 -5 -13 -16 -24 -25 -24
-18 0 -21 13 -6 22 6 3 10 0 10 -7 0 -7 6 -1 14 14 13 24 12 33 -10 85 -19 45
-23 50 -19 23 7 -35 7 -35 -10 -12 -13 18 -15 29 -7 50 6 15 12 63 15 107 7
137 82 252 207 313 77 38 210 44 288 13 30 -12 50 -16 46 -9 -5 8 -2 9 10 5
10 -4 15 -3 11 4 -4 5 -16 7 -28 4 -21 -6 -21 -5 1 8 12 7 19 16 16 20 -4 4
-3 7 3 7 14 0 24 -53 11 -61 -5 -4 4 -16 22 -29 l32 -23 44 44 c41 41 43 44
27 61 -9 10 -23 16 -30 13 -8 -2 -12 -1 -8 4 7 13 -41 46 -106 72 -76 31 -239
36 -325 11z m-139 -103 c-4 -6 -14 -8 -22 -5 -9 4 -13 1 -11 -6 6 -16 30 -18
40 -4 4 6 9 8 12 5 10 -10 14 -79 5 -85 -5 -3 -9 -2 -8 3 3 20 -2 27 -11 13
-5 -8 -12 -11 -17 -6 -4 4 0 12 10 17 9 6 15 15 12 20 -4 5 -10 7 -15 4 -4 -3
-13 2 -20 10 -7 8 -17 15 -22 15 -6 0 -4 -7 3 -16 11 -14 10 -16 -6 -14 -38 4
-37 0 5 -41 l42 -41 -26 -27 c-14 -14 -31 -42 -37 -61 -7 -19 -16 -37 -20 -40
-4 -3 -10 -48 -12 -100 -3 -64 -9 -96 -17 -98 -9 -3 -11 5 -6 32 8 40 0 48
-14 14 -7 -17 -8 -11 -3 22 3 25 12 52 19 61 20 22 18 40 -3 32 -13 -5 -12 -1
5 17 12 13 22 29 22 36 0 7 3 14 8 16 9 4 45 75 48 95 2 8 -11 28 -27 44 -30
29 -42 19 -14 -11 9 -10 13 -25 9 -34 -8 -20 -24 -21 -24 -2 0 8 -6 16 -14 19
-10 4 -12 0 -9 -14 4 -14 0 -19 -16 -19 -11 0 -21 5 -21 10 0 6 7 10 15 10 9
0 12 6 8 17 -5 12 -2 15 10 10 11 -4 14 -2 11 8 -7 18 73 105 98 105 11 0 16
-5 13 -11z m-117 -547 c2 -12 8 -22 13 -22 11 0 9 -60 -3 -76 -10 -14 1 -46
13 -38 5 3 6 -3 2 -12 -5 -13 -3 -15 8 -8 8 5 19 9 24 9 6 1 9 6 8 13 -2 7 4
9 13 5 14 -5 15 -3 4 18 -13 24 -13 24 9 5 24 -21 29 -6 6 18 -22 22 -18 32 5
11 11 -10 20 -24 20 -32 0 -7 6 -13 13 -13 7 0 22 -10 33 -23 29 -33 37 -47
25 -47 -5 0 -18 13 -27 29 -15 25 -23 29 -51 26 -19 -1 -37 -6 -41 -11 -4 -4
1 -4 10 -1 10 3 20 2 23 -4 4 -5 11 -7 16 -4 5 4 9 1 9 -4 0 -6 -4 -11 -10
-11 -5 0 -10 -5 -10 -10 0 -7 6 -7 19 0 26 13 31 13 31 -4 0 -8 6 -17 13 -19
6 -3 3 -6 -7 -6 -15 -1 -17 -4 -8 -13 8 -8 15 -8 25 1 11 9 17 8 26 -3 9 -10
8 -15 -3 -19 -8 -3 -16 -2 -18 3 -2 6 -9 6 -17 0 -12 -7 -8 -10 14 -16 27 -7
95 -42 95 -49 0 -7 -45 9 -51 17 -5 8 -31 14 -72 17 -5 1 -5 6 -2 11 6 10 -9
15 -30 10 -5 -1 -7 2 -3 6 9 8 -10 34 -24 34 -6 0 -4 -8 3 -17 11 -13 8 -13
-12 2 -18 13 -23 22 -15 27 6 4 8 8 4 9 -38 7 -57 21 -77 54 -16 27 -17 34 -5
39 10 4 12 15 7 38 -3 18 -9 35 -13 38 -13 10 -19 51 -7 47 7 -2 13 -13 15
-25z"/>
<path d="M1685 1477 c-124 -42 -209 -140 -224 -260 -19 -154 52 -288 187 -350
71 -33 198 -31 273 4 71 34 125 87 157 158 21 45 26 72 27 136 0 71 -4 88 -33
147 -54 111 -143 167 -272 174 -46 2 -90 -1 -115 -9z m175 -129 c132 -67 148
-261 28 -348 -73 -54 -160 -48 -226 14 -49 45 -65 83 -66 151 -2 151 137 247
264 183z"/>
<path d="M3135 1484 c-38 -9 -95 -37 -95 -46 0 -5 -4 -6 -10 -3 -5 3 -10 1
-10 -4 0 -6 -7 -11 -15 -11 -27 0 -115 -139 -114 -180 0 -8 6 -1 13 15 l13 30
7 -29 c4 -15 5 -31 1 -34 -3 -3 -5 0 -5 6 0 9 -5 9 -20 0 -14 -9 -20 -24 -20
-48 0 -54 12 -110 21 -104 5 3 6 -2 3 -10 -8 -20 30 -89 71 -131 107 -107 274
-122 371 -33 22 20 43 10 28 -14 -4 -7 -3 -8 4 -4 8 5 12 -1 12 -16 0 -18 -2
-20 -10 -8 -7 11 -10 4 -9 -25 0 -31 2 -36 9 -20 7 16 9 17 9 3 1 -9 -5 -21
-12 -25 -7 -4 -19 -21 -27 -38 -19 -40 -23 -53 -12 -37 7 11 10 11 15 -3 4 -9
3 -13 -2 -10 -5 3 -12 1 -16 -5 -3 -5 -11 -10 -16 -10 -6 0 -7 5 -4 10 3 6
-10 1 -30 -11 -29 -17 -48 -21 -104 -17 -61 3 -69 1 -77 -17 -5 -11 -22 -26
-38 -34 -25 -12 -30 -11 -38 3 -5 9 -14 16 -20 16 -6 0 -5 -7 3 -17 13 -16 12
-17 -3 -5 -9 8 -14 20 -11 28 7 19 19 18 27 -2 3 -8 10 -12 16 -9 6 4 7 11 4
17 -4 7 -2 8 4 4 7 -4 12 -1 12 8 0 9 -3 15 -7 15 -23 -4 -33 3 -33 23 0 12
-7 29 -15 38 -14 16 -14 18 -1 23 9 4 18 1 22 -5 5 -7 2 -8 -6 -3 -8 5 -11 3
-8 -6 3 -8 11 -13 17 -11 7 1 10 -2 7 -7 -4 -5 -2 -12 3 -16 6 -3 8 -13 5 -23
-5 -14 -4 -15 5 -2 7 10 11 11 11 3 0 -7 8 -13 18 -13 14 0 15 -2 2 -10 -8 -5
-10 -10 -5 -10 6 0 3 -4 -5 -10 -8 -5 -12 -11 -9 -14 9 -9 37 18 41 39 2 14
-2 20 -15 19 -10 -1 -16 0 -13 3 3 3 -5 18 -18 34 -13 16 -26 33 -28 39 -2 7
-23 3 -58 -11 -30 -13 -56 -24 -58 -25 -9 -6 30 -64 40 -58 6 4 8 3 4 -4 -9
-15 49 -67 104 -95 87 -43 340 -20 300 28 -7 8 -20 14 -29 14 -13 -1 -13 -2 2
-6 9 -2 17 -9 17 -14 0 -6 -10 -8 -22 -4 -19 5 -20 4 -8 -5 13 -10 12 -11 -4
-6 -11 4 -23 1 -27 -6 -5 -8 -8 -6 -7 9 2 14 7 19 17 15 8 -3 12 -1 8 5 -4 6
6 16 23 22 17 5 30 13 30 16 0 3 -4 4 -8 1 -4 -2 -14 0 -22 6 -12 8 -12 9 3 4
19 -6 24 10 5 17 -10 4 -10 6 -1 6 6 1 19 -9 28 -21 8 -13 18 -22 20 -20 3 1
4 -1 3 -5 -2 -5 -12 -7 -23 -5 -19 2 -19 1 -3 -14 20 -20 31 -14 68 38 27 37
31 68 8 68 -5 0 -7 -4 -4 -8 2 -4 -4 -13 -15 -20 -22 -14 -24 -10 -7 17 9 15
8 22 -6 36 -13 14 -19 15 -31 5 -8 -7 -15 -8 -15 -4 0 5 10 15 22 23 19 12 24
11 39 -7 9 -12 20 -18 23 -15 4 4 10 -4 13 -17 6 -22 7 -21 22 16 12 32 16
102 19 382 l3 342 -65 0 c-59 0 -66 -2 -66 -20 0 -13 7 -20 20 -20 24 0 27
-28 4 -37 -16 -6 -70 14 -61 23 3 3 12 2 19 -2 21 -13 48 -15 48 -3 0 6 -9 9
-20 6 -10 -3 -24 1 -31 9 -6 8 -16 11 -22 7 -6 -3 -7 -1 -3 5 7 12 -30 36 -43
27 -5 -3 -11 0 -13 5 -4 12 -101 22 -133 14z m145 -134 c21 -11 45 -29 53 -40
7 -11 16 -18 19 -15 2 3 5 -1 6 -8 1 -6 8 -37 17 -67 14 -50 13 -61 -1 -110
-8 -30 -16 -63 -17 -72 -1 -9 -3 -15 -6 -13 -8 8 -41 -27 -35 -37 3 -5 0 -8
-7 -7 -8 2 -31 -3 -53 -10 -35 -12 -70 -11 -134 3 -21 5 -22 3 -10 -11 11 -13
7 -13 -22 3 -19 10 -39 17 -43 16 -4 -1 -3 7 3 18 12 23 25 27 17 6 -4 -11 -1
-13 11 -10 14 5 15 4 2 -5 -8 -6 -10 -11 -4 -11 25 0 23 16 -6 45 -17 18 -38
52 -46 76 -10 32 -13 36 -11 14 3 -16 8 -39 12 -49 6 -13 5 -17 -3 -12 -6 3
-13 -3 -17 -14 -3 -11 -13 -20 -21 -20 -8 0 -14 -9 -14 -19 0 -26 -16 -35 -24
-14 -4 10 1 23 14 35 11 10 20 29 21 41 0 21 1 21 8 2 6 -14 10 -3 13 40 7 90
31 162 67 199 17 18 29 35 26 39 -3 4 -2 5 1 3 3 -2 20 2 37 9 46 20 102 18
147 -5z"/>
<path d="M4020 1481 c-139 -45 -220 -160 -220 -311 0 -132 66 -242 178 -297
49 -24 69 -28 142 -28 72 0 93 4 140 27 30 15 72 45 94 67 l38 39 -52 35 -53
36 -40 -35 c-67 -56 -133 -67 -204 -33 -45 22 -92 75 -77 88 5 5 102 46 216
92 117 47 208 90 208 97 0 24 -50 112 -85 147 -55 54 -110 78 -190 81 -38 2
-81 0 -95 -5z m156 -127 c30 -15 62 -50 52 -59 -9 -8 -273 -115 -284 -115 -17
0 -17 4 -3 53 12 46 63 105 104 123 41 18 90 17 131 -2z"/>
</g>
</svg>
