<?xml version="1.0" standalone="no"?>
<!DOCTYPE svg PUBLIC "-//W3C//DTD SVG 20010904//EN"
 "http://www.w3.org/TR/2001/REC-SVG-20010904/DTD/svg10.dtd">
<svg version="1.0" xmlns="http://www.w3.org/2000/svg"
 width="720.000000pt" height="240.000000pt" viewBox="0 0 720.000000 240.000000"
 preserveAspectRatio="xMidYMid meet">

<g transform="translate(0.000000,240.000000) scale(0.100000,-0.100000)"
fill="#000000" stroke="none">
<path d="M5580 2301 c-107 -53 -204 -102 -215 -108 -11 -7 -54 -28 -95 -46
-145 -66 -304 -236 -346 -373 -10 -29 -20 -52 -23 -50 -3 2 -7 -23 -9 -55 -3
-70 -12 -97 -54 -162 -23 -36 -33 -45 -43 -37 -10 8 -15 8 -21 -1 -4 -8 -3 -9
4 -5 7 4 12 1 12 -6 0 -13 -90 -78 -107 -78 -5 0 -29 -18 -53 -40 -44 -39 -68
-52 -54 -28 4 7 3 8 -5 4 -6 -4 -9 -11 -6 -15 2 -4 -15 -14 -38 -22 -108 -34
-170 -93 -312 -294 -23 -34 -85 -159 -85 -174 0 -5 -4 -11 -8 -13 -4 -2 -44
-50 -87 -108 -44 -58 -93 -119 -110 -136 -61 -63 -94 -102 -88 -108 7 -7 -44
-86 -55 -86 -4 0 -18 -20 -30 -44 -13 -24 -34 -47 -45 -51 -20 -6 -21 -7 -4
-14 16 -6 14 -10 -17 -26 -20 -11 -36 -24 -36 -28 0 -5 -7 -6 -16 -3 -9 3 -12
2 -9 -5 4 -6 -2 -13 -14 -16 -12 -3 -21 -9 -21 -13 0 -12 -120 -47 -185 -55
-33 -4 -84 -14 -114 -22 -29 -8 -67 -13 -85 -10 -17 3 -25 3 -18 0 6 -2 12 -9
12 -14 0 -6 -4 -8 -8 -5 -4 2 -14 1 -22 -5 -12 -7 -10 -9 8 -9 12 0 22 -4 22
-10 0 -13 -26 -13 -50 0 -13 7 -30 5 -62 -10 l-43 -19 37 2 c20 1 34 5 31 10
-2 4 1 7 6 7 6 0 11 -4 11 -10 0 -7 685 -10 2035 -10 l2035 0 0 1199 0 1200
-712 0 -713 0 -195 -98z m-1814 -1999 c-18 -16 -18 -16 -6 6 6 13 14 21 18 18
3 -4 -2 -14 -12 -24z m-116 -137 c-7 -8 -17 -15 -23 -15 -6 0 -2 7 9 15 25 19
30 19 14 0z m-45 -25 c-9 -15 -76 -41 -95 -38 -8 2 10 13 40 25 66 26 63 25
55 13z m-160 -57 c-22 -8 -52 -12 -67 -10 -15 2 -25 0 -22 -5 6 -10 -4 -9 -31
1 -18 7 -16 9 12 15 18 4 42 5 53 1 11 -3 20 -2 20 3 0 6 17 10 38 10 l37 0
-40 -15z m-141 -22 c6 -10 -82 -26 -92 -17 -3 3 6 6 19 6 13 0 31 5 39 10 19
12 27 12 34 1z"/>
<path d="M2643 2363 c9 -2 25 -2 35 0 9 3 1 5 -18 5 -19 0 -27 -2 -17 -5z"/>
<path d="M2435 2349 c-44 -5 -111 -15 -150 -24 -39 -8 -137 -17 -220 -19 -166
-4 -191 -10 -340 -81 -49 -23 -107 -49 -127 -56 -21 -7 -38 -17 -38 -21 0 -4
-9 -8 -19 -8 -11 0 -23 -5 -27 -12 -5 -7 -3 -8 6 -3 8 5 11 4 6 -3 -4 -6 -13
-9 -20 -6 -8 3 -33 -7 -56 -23 -24 -15 -51 -32 -62 -38 -10 -5 -16 -16 -13
-23 3 -10 -1 -11 -17 -6 -16 5 -20 3 -15 -9 6 -17 -37 -52 -53 -42 -6 4 -7 -1
-3 -11 4 -12 3 -15 -5 -10 -7 4 -12 1 -12 -10 0 -14 -2 -15 -17 -3 -15 12 -16
12 -10 -3 4 -11 2 -15 -6 -12 -17 6 -99 -55 -90 -69 4 -6 0 -8 -9 -4 -10 3
-27 -6 -44 -24 -15 -16 -33 -29 -40 -29 -9 0 -12 -12 -9 -37 3 -25 2 -33 -4
-24 -5 8 -7 21 -3 29 7 19 3 17 -104 -67 -49 -39 -116 -92 -149 -118 -33 -26
-62 -50 -65 -53 -3 -3 -21 -17 -40 -30 -19 -12 -39 -28 -45 -34 -12 -14 -92
-66 -101 -66 -3 0 -18 -8 -32 -18 -26 -17 -49 -27 -202 -85 -36 -14 -118 -37
-182 -53 -109 -26 -141 -43 -105 -57 9 -4 9 -6 0 -6 -7 -1 -13 -6 -13 -12 0
-11 37 -9 115 6 21 4 26 3 15 -3 -8 -6 -41 -15 -72 -22 l-58 -11 0 -45 c0 -24
4 -44 8 -44 5 0 49 16 98 35 49 19 100 35 114 34 21 -1 19 -2 -10 -10 -19 -6
-57 -20 -85 -33 -27 -13 -67 -29 -88 -35 -20 -7 -37 -17 -37 -22 0 -5 3 -9 6
-9 10 0 288 110 317 125 16 8 33 15 38 15 6 0 29 8 52 19 23 10 51 22 62 26
20 8 20 8 0 13 -10 2 -21 0 -23 -6 -2 -6 -9 -9 -17 -6 -7 3 -16 1 -20 -5 -3
-6 -14 -11 -23 -11 -9 1 3 12 28 25 28 15 55 22 70 19 14 -2 34 2 45 10 17 13
18 15 3 16 -9 0 -18 -6 -21 -12 -2 -7 -8 -9 -13 -5 -13 12 18 28 44 22 23 -6
31 9 10 19 -7 3 -3 3 9 0 18 -4 22 -2 17 10 -4 9 4 20 23 30 15 8 48 32 73 54
25 22 47 38 50 36 2 -3 -9 -16 -25 -28 -17 -13 -42 -35 -57 -49 -15 -14 -33
-27 -40 -30 -7 -2 -10 -8 -6 -12 4 -4 14 0 23 9 9 9 33 29 53 44 20 15 52 42
71 59 20 18 39 33 43 33 8 0 76 47 155 106 23 18 39 34 36 37 -3 4 -12 0 -20
-8 -8 -8 -20 -15 -26 -15 -7 1 -1 10 12 21 13 11 31 17 39 14 15 -6 97 50 106
73 8 18 2 15 -33 -15 -56 -51 -62 -55 -68 -49 -4 3 -4 7 -2 9 21 14 105 83
110 90 3 4 10 7 15 6 22 -5 44 14 39 32 -4 11 -2 19 4 19 6 0 11 -6 11 -12 0
-7 33 21 74 61 44 43 72 79 69 87 -3 8 -1 14 5 14 6 0 12 -5 14 -10 2 -6 32
20 68 56 47 48 54 59 27 39 -21 -15 -42 -37 -48 -47 -5 -10 -15 -15 -21 -12
-7 4 -8 3 -4 -4 4 -8 0 -12 -11 -12 -21 1 66 83 109 102 15 7 24 16 22 20 -3
4 2 8 10 8 9 0 15 5 13 11 -2 14 31 35 136 88 43 22 100 54 127 71 96 61 140
73 315 80 138 6 341 30 495 59 l45 9 -50 -1 c-27 0 -86 -3 -130 -8z m-1015
-309 c0 -5 -5 -10 -11 -10 -5 0 -7 5 -4 10 3 6 8 10 11 10 2 0 4 -4 4 -10z
m-30 -34 c0 -3 -4 -8 -10 -11 -5 -3 -10 -1 -10 4 0 6 5 11 10 11 6 0 10 -2 10
-4z m-192 -125 c-7 -12 -16 -21 -21 -21 -4 0 0 11 10 24 22 29 30 27 11 -3z
m92 -11 c0 -13 -110 -124 -116 -117 -3 3 13 23 37 44 61 55 69 63 69 74 0 5 2
9 5 9 3 0 5 -4 5 -10z m-350 -220 c0 -5 -5 -10 -11 -10 -5 0 -7 5 -4 10 3 6 8
10 11 10 2 0 4 -4 4 -10z m-40 -24 c0 -2 -7 -6 -15 -10 -8 -3 -15 -1 -15 4 0
6 7 10 15 10 8 0 15 -2 15 -4z m5 -106 c-10 -11 -20 -18 -22 -16 -4 4 -12 -1
-65 -46 -12 -10 -25 -18 -29 -18 -4 0 -15 -7 -24 -16 -9 -9 -19 -13 -23 -9 -4
3 0 10 8 15 8 5 47 31 85 59 74 53 100 64 70 31z m-832 -317 c-7 -2 -21 -2
-30 0 -10 3 -4 5 12 5 17 0 24 -2 18 -5z m142 -13 c-11 -5 -29 -9 -40 -9 l-20
0 20 9 c11 5 29 9 40 9 l20 0 -20 -9z m140 -26 c-11 -8 -25 -12 -32 -10 -7 3
-15 1 -18 -4 -4 -6 -15 -10 -25 -10 -10 0 -20 -5 -22 -12 -3 -8 -9 -8 -24 0
-19 11 -18 11 2 12 11 0 24 3 28 8 9 8 74 30 96 31 11 0 10 -4 -5 -15z"/>
<path d="M1941 2341 c-23 -6 243 -4 284 3 11 2 -43 3 -120 4 -77 0 -151 -3
-164 -7z"/>
<path d="M2545 2323 c-33 -8 -79 -16 -102 -16 -24 -1 -37 -5 -30 -9 7 -5 -15
-8 -48 -8 -88 1 -165 -11 -140 -21 12 -5 -15 -7 -65 -5 -54 3 -69 2 -40 -2 36
-6 18 -9 -81 -14 -139 -6 -122 -1 -309 -109 -86 -50 -100 -60 -153 -111 -22
-21 -43 -35 -48 -32 -5 3 -6 -3 -2 -13 3 -10 3 -15 -1 -12 -3 3 -61 -48 -129
-113 -100 -98 -276 -266 -368 -350 -10 -10 -24 -18 -30 -18 -5 0 -8 -4 -5 -9
3 -4 -7 -19 -22 -32 -14 -13 -20 -16 -13 -6 7 9 9 17 3 17 -15 0 -33 -26 -24
-35 4 -5 1 -5 -5 -1 -7 4 -13 2 -13 -3 0 -6 -7 -11 -16 -11 -8 0 -12 -5 -9
-10 4 -6 1 -9 -7 -8 -7 2 -12 -4 -12 -13 1 -11 -5 -15 -16 -12 -10 3 -21 -1
-26 -8 -5 -9 -2 -10 12 -5 12 4 7 -3 -11 -18 -16 -14 -38 -25 -47 -26 -9 0
-24 -9 -32 -21 -8 -12 -19 -18 -25 -14 -7 3 -10 3 -9 -2 2 -4 -1 -10 -7 -11
-29 -11 -44 -24 -39 -36 3 -7 -2 -16 -12 -20 -14 -5 -15 -4 -4 9 26 31 -2 13
-46 -30 -25 -25 -49 -45 -53 -45 -4 0 -23 -13 -41 -30 -18 -16 -40 -30 -47
-30 -8 0 -25 -12 -38 -26 -15 -16 -31 -24 -40 -20 -9 3 -15 0 -15 -10 0 -11
-6 -13 -20 -9 -15 5 -26 0 -39 -17 -11 -13 -36 -32 -57 -43 -22 -10 -51 -28
-67 -38 -33 -23 -57 -19 -33 6 10 9 14 17 9 17 -5 0 -17 -9 -26 -21 -10 -11
-25 -18 -33 -15 -9 3 -12 2 -9 -5 4 -6 -1 -9 -11 -7 -15 2 -19 -3 -17 -24 2
-21 -7 -34 -38 -58 -32 -26 -39 -38 -39 -66 0 -33 1 -34 22 -23 l23 11 -22
-21 c-22 -20 -22 -26 -23 -305 0 -221 2 -285 12 -289 10 -4 10 -6 1 -6 -9 -1
-13 -19 -13 -56 l0 -55 225 0 c221 0 227 1 275 25 63 32 79 32 20 0 l-45 -25
70 2 c39 1 83 8 98 15 37 19 30 25 -13 13 -42 -12 -31 0 15 16 19 6 32 8 29 3
-8 -14 4 -11 54 16 56 30 159 109 152 117 -9 11 33 49 48 43 21 -8 37 6 21 17
-11 8 -10 9 3 4 11 -3 33 8 59 30 23 19 51 42 63 49 11 8 17 17 13 21 -3 3
-28 -11 -54 -32 -97 -77 -85 -58 17 26 56 46 82 61 56 32 -24 -28 -9 -28 24
-1 18 14 21 22 12 26 -10 4 -9 9 4 24 9 10 22 19 27 19 6 0 2 -9 -8 -20 -27
-30 -8 -24 37 11 21 17 41 29 44 27 4 -5 -54 -60 -117 -110 -19 -15 -29 -27
-24 -27 6 -1 34 20 63 45 29 26 55 44 58 42 2 -3 -12 -20 -33 -38 -21 -19 -38
-39 -38 -46 0 -6 -16 -26 -35 -43 -34 -30 -57 -41 -45 -21 3 6 1 10 -6 10 -7
0 -2 11 11 25 32 34 12 32 -25 -3 -16 -15 -86 -70 -154 -122 -67 -52 -118 -96
-112 -98 13 -4 5 -22 -10 -22 -6 0 -7 5 -3 11 8 13 9 14 -71 -25 -33 -16 -54
-31 -48 -33 6 -2 26 5 44 16 19 12 39 21 44 21 6 -1 -3 -8 -18 -16 -16 -9 -26
-18 -23 -21 3 -3 17 2 30 11 32 20 42 21 26 0 -12 -13 -10 -14 14 -3 17 8 25
18 21 27 -4 10 0 12 11 8 20 -8 81 34 64 44 -9 6 -9 9 1 16 7 4 14 3 17 -4 2
-6 35 13 75 43 40 31 77 53 84 51 8 -3 10 1 6 11 -5 13 -2 15 11 10 9 -4 15
-3 12 2 -8 12 61 64 74 56 5 -3 7 0 4 8 -3 8 2 17 11 21 10 4 15 12 11 22 -3
9 -2 12 5 8 6 -3 28 8 50 25 21 18 44 29 51 25 7 -5 8 -3 3 5 -4 8 1 18 14 28
31 21 204 168 255 216 16 15 54 49 85 75 30 26 82 72 115 104 34 31 82 76 108
100 25 23 65 65 87 91 23 27 41 46 41 43 0 -3 38 31 85 76 46 45 82 85 79 90
-3 5 -10 6 -15 2 -5 -3 -7 -9 -4 -14 7 -12 -12 -23 -26 -15 -6 4 4 21 25 43
20 19 36 40 36 45 0 5 -20 -13 -44 -39 -71 -80 -98 -114 -91 -114 5 0 -12 -19
-36 -42 -24 -24 -71 -72 -104 -108 -104 -113 -145 -147 -155 -130 -5 8 -12 11
-17 7 -4 -5 -1 -12 7 -17 12 -8 10 -13 -10 -31 -14 -12 -44 -41 -68 -63 -32
-30 -45 -38 -51 -28 -6 10 -11 9 -22 -4 -13 -16 -12 -17 6 -11 11 4 -4 -16
-33 -44 -29 -28 -55 -49 -59 -45 -3 3 14 24 38 46 24 23 39 40 33 38 -23 -6
-98 -82 -85 -86 9 -3 6 -11 -10 -28 -24 -25 -50 -34 -30 -10 9 11 9 15 0 18
-7 2 25 36 71 76 45 39 87 69 92 66 5 -3 29 15 53 39 24 25 50 47 57 50 7 2 9
8 5 13 -4 5 -12 2 -17 -6 -5 -8 -11 -12 -14 -9 -3 3 33 43 79 89 93 90 159
170 221 265 21 33 45 66 52 73 12 13 16 28 12 47 -1 5 1 7 5 3 10 -10 38 20
30 32 -3 5 1 20 10 32 9 13 47 75 85 138 38 63 74 114 80 112 6 -1 9 2 5 7 -8
14 23 73 35 66 5 -3 12 0 16 6 4 8 3 9 -4 5 -20 -12 -13 9 20 60 40 62 37 58
44 51 3 -3 -4 -19 -17 -36 -12 -17 -20 -34 -16 -37 3 -3 14 8 25 25 10 17 22
28 26 24 4 -4 4 1 0 12 -4 11 -4 17 0 14 8 -7 97 83 90 90 -3 3 -25 -16 -50
-43 -25 -26 -49 -45 -52 -41 -11 11 94 107 161 147 139 81 186 100 251 101 63
1 202 -29 212 -45 6 -9 -25 -4 -84 14 -73 22 -185 -7 -317 -81 -61 -35 -192
-161 -256 -245 -19 -25 -40 -43 -47 -41 -7 3 -10 0 -6 -6 6 -10 -48 -96 -70
-111 -6 -4 -7 -8 -3 -8 5 0 2 -6 -5 -14 -15 -16 -33 -42 -51 -72 -7 -12 -20
-33 -31 -48 -10 -15 -16 -29 -14 -32 3 -3 27 26 54 63 159 226 351 444 419
475 13 6 22 15 19 20 -3 5 0 8 7 6 8 -1 30 7 49 19 19 12 56 27 82 33 26 7 46
15 44 19 -6 9 154 -5 198 -18 19 -5 55 -23 80 -40 50 -35 65 -39 45 -13 -13
16 -13 16 7 0 34 -29 40 -20 8 13 -46 49 -103 83 -184 111 -102 35 -134 42
-125 27 6 -8 -8 -10 -51 -5 -58 6 -159 -13 -138 -27 6 -3 16 -2 24 4 8 5 22 9
30 9 22 -1 -9 -18 -42 -24 -15 -2 -35 -9 -46 -15 -27 -14 -35 -14 -26 1 5 7 3
8 -5 4 -7 -5 -10 -10 -7 -14 7 -6 -24 -31 -39 -32 -5 0 -3 5 5 11 12 9 12 10
-3 5 -10 -3 -21 -6 -23 -6 -3 0 -2 -5 2 -12 5 -7 2 -9 -9 -5 -11 4 -14 2 -10
-9 4 -10 0 -15 -8 -14 -26 4 -39 0 -39 -11 0 -8 5 -8 15 1 8 7 15 8 15 3 0 -5
-11 -15 -24 -22 -13 -7 -33 -26 -45 -42 -15 -19 -27 -26 -39 -22 -9 3 -14 3
-10 -1 4 -5 -2 -17 -13 -29 -10 -11 -19 -26 -19 -32 0 -6 -11 -21 -25 -33 -14
-13 -23 -27 -20 -32 3 -6 1 -10 -4 -10 -6 0 -11 -12 -11 -26 0 -16 -4 -23 -12
-18 -7 5 -8 3 -3 -5 9 -16 -15 -62 -28 -54 -6 3 -7 1 -3 -5 3 -6 0 -17 -8 -25
-8 -8 -12 -18 -8 -22 4 -3 -2 -13 -13 -21 -11 -8 -20 -18 -20 -22 0 -13 -66
-134 -95 -173 -15 -21 -33 -53 -41 -71 -7 -18 -16 -35 -19 -38 -3 -3 -26 -36
-50 -75 -24 -38 -58 -90 -77 -115 -50 -67 -272 -288 -400 -398 -62 -53 -110
-98 -108 -101 3 -2 14 4 25 14 11 10 23 16 26 12 3 -3 -6 -13 -20 -23 -15 -9
-29 -14 -33 -10 -4 3 -15 -2 -25 -11 -15 -13 -21 -14 -27 -5 -8 14 -41 6 -41
-10 0 -5 -5 -6 -11 -2 -6 4 1 13 18 24 16 10 31 13 34 8 16 -24 475 409 549
518 27 40 50 76 50 78 0 3 23 44 50 91 28 47 107 196 175 333 69 136 132 256
140 266 26 34 25 11 -1 -30 -20 -32 -20 -33 -2 -9 13 16 58 66 100 110 42 44
77 84 77 90 0 5 5 11 12 14 7 2 9 -1 4 -9 -5 -9 -4 -11 4 -6 6 4 9 11 6 16 -8
12 53 43 67 34 6 -4 8 -3 5 3 -8 12 89 57 102 48 5 -3 11 1 13 7 3 9 35 13
114 13 104 0 113 -2 179 -34 104 -50 158 -95 248 -206 44 -55 84 -99 88 -98 5
2 6 -4 3 -12 -4 -8 -2 -15 2 -15 5 0 22 -12 37 -26 23 -19 26 -28 17 -38 -8
-11 -8 -16 2 -22 19 -12 39 -14 32 -3 -3 5 -13 9 -22 9 -12 0 -13 3 -4 12 9 9
17 6 37 -12 13 -12 22 -27 18 -33 -3 -6 -1 -7 4 -4 6 4 17 -1 24 -10 12 -15
12 -16 -5 -9 -19 7 -19 6 -1 -14 10 -11 23 -19 29 -17 6 2 15 -5 21 -16 10
-19 60 -55 79 -56 5 -1 -11 18 -36 42 -24 23 -60 63 -78 89 -18 26 -37 45 -43
41 -6 -3 -7 -1 -4 4 7 12 -16 36 -26 28 -4 -3 -5 -2 -2 1 8 12 -76 125 -87
118 -6 -4 -8 -3 -4 4 3 6 -22 56 -58 110 -76 118 -96 143 -109 135 -6 -3 -7
-1 -3 5 9 15 -14 51 -29 46 -7 -3 -18 3 -26 13 -13 17 -13 17 6 3 11 -8 2 5
-20 28 -22 24 -51 46 -65 49 -38 9 -142 62 -169 87 -13 11 -21 15 -17 9 9 -16
13 -16 -54 2 -68 18 -128 18 -205 -2z m102 -9 c-3 -3 -12 -4 -19 -1 -8 3 -5 6
6 6 11 1 17 -2 13 -5z m88 -4 c14 -7 8 -8 -20 -3 -22 3 -42 7 -44 9 -9 8 45 2
64 -6z m62 -16 c-3 -3 -12 -4 -19 -1 -8 3 -5 6 6 6 11 1 17 -2 13 -5z m-430
-40 c-3 -3 -12 -4 -19 -1 -8 3 -5 6 6 6 11 1 17 -2 13 -5z m-100 -20 c-3 -3
-12 -4 -19 -1 -8 3 -5 6 6 6 11 1 17 -2 13 -5z m-214 -11 c-7 -2 -21 -2 -30 0
-10 3 -4 5 12 5 17 0 24 -2 18 -5z m932 -7 c19 -8 35 -17 35 -20 0 -3 -15 1
-32 8 -18 7 -40 16 -48 19 -10 3 -10 6 -2 6 7 1 28 -6 47 -13z m-1018 -2 c-3
-3 -12 -4 -19 -1 -8 3 -5 6 6 6 11 1 17 -2 13 -5z m183 -14 c-34 -11 -60 -11
-35 0 11 5 29 8 40 8 16 0 15 -2 -5 -8z m-250 -4 c0 -2 -7 -7 -16 -10 -8 -3
-12 -2 -9 4 6 10 25 14 25 6z m185 -16 c-3 -5 -14 -10 -23 -9 -14 0 -13 2 3 9
27 11 27 11 20 0z m-45 -15 c0 -2 -22 -15 -50 -28 -27 -13 -50 -20 -50 -16 0
5 6 9 13 9 8 0 7 4 -3 11 -12 8 -11 9 5 5 11 -3 31 1 45 8 27 15 40 19 40 11z
m497 -11 c-3 -3 -12 -4 -19 -1 -8 3 -5 6 6 6 11 1 17 -2 13 -5z m335 -2 c10
-4 -20 -7 -65 -7 -57 -1 -104 -8 -154 -24 -93 -29 -259 -113 -256 -128 2 -7
-3 -10 -10 -7 -18 6 -189 -194 -202 -237 -4 -11 -11 -19 -16 -19 -5 0 -9 -9
-9 -20 0 -11 -5 -20 -11 -20 -5 0 -8 -4 -4 -9 3 -6 -4 -26 -15 -46 -11 -20
-18 -40 -15 -45 3 -4 1 -10 -3 -12 -5 -1 -41 -68 -79 -148 -96 -196 -119 -236
-127 -215 -4 10 -2 14 5 9 8 -4 9 1 4 16 -5 15 -4 20 4 16 7 -5 14 4 17 23 4
17 11 28 16 25 6 -4 8 3 3 17 -5 20 -4 21 5 9 10 -12 11 -11 7 7 -3 14 -1 20
7 17 12 -4 42 59 40 83 -1 7 2 11 6 8 7 -4 32 48 96 197 42 99 75 157 108 193
15 16 24 35 21 42 -2 8 0 11 5 8 5 -3 26 13 47 36 21 23 43 48 50 54 7 7 9 16
5 20 -4 5 -1 5 6 1 6 -4 12 -3 12 3 0 9 107 64 210 109 40 17 93 33 155 46 32
6 119 5 137 -2z m-396 -12 c-15 -5 -50 -11 -76 -14 -26 -3 -55 -8 -66 -11 -17
-6 -17 -5 -2 4 9 6 40 14 70 17 29 3 55 8 57 10 2 2 14 4 25 3 16 -1 14 -3 -8
-9z m609 -92 c11 -12 13 -16 4 -10 -9 7 -49 28 -88 47 -39 19 -71 37 -71 39 0
11 136 -57 155 -76z m30 63 c3 -5 2 -12 -3 -15 -5 -3 -9 1 -9 9 0 17 3 19 12
6z m-831 -15 c-17 -8 -46 -17 -65 -20 -36 -6 -22 2 36 22 44 15 65 13 29 -2z
m70 -44 c-57 -32 -86 -61 -202 -208 -29 -36 -83 -129 -99 -169 -40 -105 -89
-215 -96 -215 -4 0 1 17 11 38 11 20 25 55 32 77 7 22 31 78 54 125 22 47 40
91 39 98 -1 7 1 11 4 8 4 -4 42 39 98 113 5 7 24 29 42 47 17 19 29 34 26 34
-9 0 40 36 72 53 17 9 35 16 40 16 6 0 -4 -8 -21 -17z m-294 4 c0 -2 -8 -10
-17 -17 -16 -13 -17 -12 -4 4 13 16 21 21 21 13z m85 -21 c-16 -14 -39 -30
-50 -37 -19 -10 -19 -10 -5 7 14 17 69 55 80 55 3 0 -8 -11 -25 -25z m920 -61
l30 -26 -35 23 c-45 29 -45 29 -34 29 5 0 23 -12 39 -26z m-680 -54 c-38 -38
-71 -67 -74 -64 -6 6 120 134 133 134 6 0 -21 -31 -59 -70z m815 1 c0 -10 -49
53 -50 63 0 6 11 -5 25 -24 14 -19 25 -36 25 -39z m-1130 56 c0 -2 -10 -12
-22 -23 l-23 -19 19 23 c18 21 26 27 26 19z m1161 -94 c13 -16 12 -17 -3 -4
-17 13 -22 21 -14 21 2 0 10 -8 17 -17z m-1630 -26 c-10 -9 -11 -8 -5 6 3 10
9 15 12 12 3 -3 0 -11 -7 -18z m213 -62 c-4 -8 -11 -15 -16 -15 -6 0 -5 6 2
15 7 8 14 15 16 15 2 0 1 -7 -2 -15z m-58 -71 c-10 -14 -20 -23 -23 -20 -3 3
2 12 11 21 9 9 16 21 16 27 0 6 3 8 6 5 4 -4 -1 -18 -10 -33z m134 6 c-6 -12
-14 -20 -17 -17 -2 3 1 14 8 26 7 11 15 18 17 16 2 -2 -2 -13 -8 -25z m-410 5
c-7 -8 -17 -15 -23 -15 -6 0 -2 7 9 15 25 19 30 19 14 0z m228 -74 c-13 -15
-25 -27 -26 -25 -6 4 32 53 41 54 5 0 -2 -13 -15 -29z m128 -33 c-9 -14 -13
-28 -9 -33 5 -4 2 -5 -4 -1 -10 6 -9 14 3 37 8 17 18 29 21 26 2 -3 -3 -16
-11 -29z m-276 -13 c-7 -8 -17 -15 -23 -15 -6 0 -2 7 9 15 25 19 30 19 14 0z
m100 -4 c0 -5 -7 -12 -16 -15 -14 -5 -15 -4 -4 9 14 17 20 19 20 6z m1815 -11
c3 -5 1 -10 -4 -10 -6 0 -11 5 -11 10 0 6 2 10 4 10 3 0 8 -4 11 -10z m-1969
-38 c-17 -16 -18 -16 -5 5 7 12 15 20 18 17 3 -2 -3 -12 -13 -22z m97 -17 c-3
-9 -8 -14 -10 -11 -3 3 -2 9 2 15 9 16 15 13 8 -4z m-123 -10 c0 -2 -10 -9
-22 -15 -22 -11 -22 -10 -4 4 21 17 26 19 26 11z m73 -44 c-15 -16 -30 -27
-32 -25 -6 6 40 54 51 54 5 0 -3 -13 -19 -29z m67 25 c0 -2 -8 -10 -17 -17
-16 -13 -17 -12 -4 4 13 16 21 21 21 13z m-180 -20 c0 -2 -8 -10 -17 -17 -16
-13 -17 -12 -4 4 13 16 21 21 21 13z m318 -41 c-6 -14 -13 -23 -15 -21 -5 5
15 46 22 46 3 0 -1 -11 -7 -25z m-360 -120 c-105 -107 -147 -145 -102 -93 49
57 199 208 207 208 5 0 -42 -52 -105 -115z m538 83 c-18 -26 -22 -17 -5 14 6
11 13 17 16 15 3 -3 -2 -16 -11 -29z m-29 -65 c-8 -15 -27 -56 -43 -91 -16
-35 -32 -66 -36 -69 -8 -4 12 43 70 165 8 17 17 30 20 28 2 -3 -3 -17 -11 -33z
m-437 14 c0 -2 -9 -12 -20 -22 -24 -21 -27 -14 -4 9 15 15 24 20 24 13z m80
-1 c0 -2 -8 -10 -17 -17 -16 -13 -17 -12 -4 4 13 16 21 21 21 13z m-286 -175
c-10 -10 -28 -31 -38 -45 -11 -15 -79 -82 -150 -149 -72 -67 -117 -106 -101
-88 17 19 52 55 79 80 107 101 153 148 180 184 16 20 33 37 39 37 6 0 2 -8 -9
-19z m622 -49 c-8 -16 -12 -33 -8 -37 4 -5 1 -5 -5 -1 -8 4 -13 1 -13 -9 0 -9
-21 -40 -47 -68 -66 -73 -316 -317 -325 -317 -4 0 69 77 164 170 94 94 168
170 164 170 -4 0 3 10 14 22 11 12 18 28 15 36 -2 7 -1 11 3 8 4 -2 16 17 27
42 12 29 21 40 23 30 2 -9 -4 -30 -12 -46z m218 23 c-4 -8 -10 -13 -15 -10 -4
3 -13 -4 -19 -15 -6 -11 -15 -20 -21 -20 -6 0 -3 7 5 16 9 8 21 24 27 35 11
22 31 16 23 -6z m-744 9 c0 -8 -19 -13 -24 -6 -3 5 1 9 9 9 8 0 15 -2 15 -3z
m445 -33 c-21 -43 -29 -39 -8 4 9 19 18 33 21 31 2 -2 -4 -18 -13 -35z m-515
-45 c0 -3 -4 -8 -10 -11 -5 -3 -10 -1 -10 4 0 6 5 11 10 11 6 0 10 -2 10 -4z
m490 -5 c0 -5 -7 -14 -15 -21 -16 -14 -18 -10 -9 14 6 17 24 22 24 7z m-750
-14 c0 -2 -10 -12 -22 -23 l-23 -19 19 23 c18 21 26 27 26 19z m720 -31 c0 -2
-7 -7 -16 -10 -8 -3 -12 -2 -9 4 6 10 25 14 25 6z m-1400 -52 c0 -7 -27 -34
-35 -34 -3 0 -1 9 5 20 10 18 30 28 30 14z m632 -31 c-6 -2 -9 -10 -5 -16 3
-7 3 -9 -2 -5 -4 4 -15 2 -24 -4 -10 -8 -9 -4 3 10 11 12 24 22 30 21 6 0 6
-3 -2 -6z m408 3 c0 -2 -7 -7 -16 -10 -8 -3 -12 -2 -9 4 6 10 25 14 25 6z
m270 -10 c0 -2 -8 -10 -17 -17 -16 -13 -17 -12 -4 4 13 16 21 21 21 13z m-730
-40 c0 -2 -7 -9 -15 -16 -13 -11 -14 -10 -9 4 5 14 24 23 24 12z m-800 -36
c-14 -10 -27 -16 -30 -13 -6 6 30 33 44 33 6 0 0 -9 -14 -20z m871 7 c-6 -8
-8 -17 -4 -21 4 -4 -1 -4 -12 0 -15 6 -17 4 -12 -10 4 -9 3 -15 -2 -11 -5 3
-12 1 -16 -5 -3 -5 -11 -10 -16 -10 -6 0 6 16 27 35 37 35 56 47 35 22z m289
-1 c0 -2 -8 -10 -17 -17 -16 -13 -17 -12 -4 4 13 16 21 21 21 13z m274 -30
c-21 -19 -41 -32 -44 -30 -5 6 62 64 74 64 5 0 -8 -15 -30 -34z m-1015 21 c-2
-1 -13 -9 -24 -17 -19 -14 -19 -14 -6 3 7 9 18 17 24 17 6 0 8 -1 6 -3z m311
-86 c-47 -44 -100 -94 -117 -113 -18 -18 -33 -28 -33 -23 0 12 211 214 225
215 5 0 -29 -36 -75 -79z m-90 40 c0 -5 -7 -12 -16 -15 -14 -5 -15 -4 -4 9 14
17 20 19 20 6z m150 -14 c0 -2 -10 -12 -22 -23 l-23 -19 19 23 c18 21 26 27
26 19z m110 -2 c0 -2 -10 -10 -22 -16 -21 -11 -22 -11 -9 4 13 16 31 23 31 12z
m190 1 c0 -2 -8 -10 -17 -17 -16 -13 -17 -12 -4 4 13 16 21 21 21 13z m-1030
-16 c0 -5 -5 -10 -11 -10 -5 0 -7 5 -4 10 3 6 8 10 11 10 2 0 4 -4 4 -10z
m1490 7 c0 -2 -18 -21 -40 -42 -22 -21 -40 -36 -40 -33 0 4 16 23 37 43 33 32
43 40 43 32z m-180 -12 c0 -5 -81 -85 -101 -100 -44 -32 -50 -34 -21 -9 18 16
51 48 74 72 40 41 48 47 48 37z m-1340 -30 c-7 -8 -17 -15 -23 -15 -6 0 -2 7
9 15 25 19 30 19 14 0z m259 -12 c-7 -10 -14 -19 -15 -21 -1 -2 -4 4 -8 13 -3
9 -2 13 3 10 5 -3 12 -1 16 5 3 5 9 10 12 10 3 0 -1 -8 -8 -17z m535 -7 c-3
-8 -13 -17 -22 -21 -13 -5 -13 -2 3 15 21 24 26 25 19 6z m-285 -9 c-2 -1 -13
-9 -24 -17 -19 -14 -19 -14 -6 3 7 9 18 17 24 17 6 0 8 -1 6 -3z m-289 -21 c0
-2 -8 -10 -17 -17 -16 -13 -17 -12 -4 4 13 16 21 21 21 13z m410 -19 c0 -2
-10 -12 -22 -23 l-23 -19 19 23 c18 21 26 27 26 19z m310 -5 c0 -4 -10 -13
-22 -21 -23 -14 -23 -14 -4 8 20 22 26 25 26 13z m345 -27 c-22 -19 -44 -34
-48 -35 -5 0 -5 -5 -1 -12 5 -7 3 -8 -6 -3 -10 6 -3 18 29 47 24 21 49 38 55
38 6 0 -7 -16 -29 -35z m-590 -15 c-3 -5 -12 -10 -18 -10 -7 0 -6 4 3 10 19
12 23 12 15 0z m-175 -25 c-13 -14 -28 -25 -34 -25 -11 1 40 50 51 50 4 0 -4
-11 -17 -25z m60 22 c0 -2 -12 -14 -27 -28 l-28 -24 24 28 c23 25 31 32 31 24z
m70 -1 c0 -2 -8 -10 -17 -17 -16 -13 -17 -12 -4 4 13 16 21 21 21 13z m524
-10 c-10 -8 -21 -12 -24 -10 -5 6 21 24 34 24 6 0 1 -6 -10 -14z m41 -37 c-4
-5 -15 -14 -27 -20 -20 -11 -20 -11 -2 14 17 23 42 28 29 6z m-131 -43 c-21
-19 -41 -32 -43 -30 -4 3 10 17 64 63 6 5 12 7 14 5 2 -2 -13 -19 -35 -38z
m-474 20 c0 -2 -8 -10 -17 -17 -16 -13 -17 -12 -4 4 13 16 21 21 21 13z m-164
-21 c-11 -8 -24 -15 -30 -15 -5 0 -1 7 10 15 10 8 24 14 29 14 6 0 1 -6 -9
-14z m339 -5 c-10 -11 -21 -18 -23 -15 -3 3 3 12 14 20 27 20 30 18 9 -5z
m-223 -22 c-7 -7 -12 -8 -12 -2 0 14 12 26 19 19 2 -3 -1 -11 -7 -17z m708 15
c0 -5 -16 -19 -34 -33 -19 -14 -73 -58 -120 -99 -48 -40 -89 -71 -92 -69 -2 3
36 38 86 79 49 41 90 78 90 83 0 6 -13 -2 -28 -17 -36 -35 -53 -35 -21 -1 26
28 66 54 55 35 -12 -19 10 -12 29 9 18 20 35 26 35 13z m-915 -68 c-32 -30
-61 -52 -64 -50 -2 3 15 22 39 42 24 21 48 43 54 50 6 7 16 12 21 12 6 0 -17
-24 -50 -54z m175 30 c-7 -9 -15 -13 -19 -10 -3 3 1 10 9 15 21 14 24 12 10
-5z m603 -17 c-18 -18 -36 -29 -40 -25 -8 8 45 56 62 57 5 0 -5 -14 -22 -32z
m-138 -7 c-16 -16 -32 -27 -35 -24 -4 4 50 52 60 53 3 0 -8 -13 -25 -29z m95
20 c0 -5 -15 -20 -32 -32 l-33 -22 29 31 c32 34 36 37 36 23z m-590 -21 c0 -5
-5 -10 -11 -10 -5 0 -7 5 -4 10 3 6 8 10 11 10 2 0 4 -4 4 -10z m190 -24 c0
-2 -7 -7 -16 -10 -8 -3 -12 -2 -9 4 6 10 25 14 25 6z m420 -21 c-13 -14 -28
-25 -33 -25 -6 0 0 11 13 25 13 14 28 25 33 25 6 0 0 -11 -13 -25z m-185 -15
c-16 -16 -33 -30 -38 -30 -6 0 4 14 21 30 18 17 35 30 39 30 4 0 -6 -13 -22
-30z m-477 8 c-8 -7 -25 -22 -38 -33 -20 -16 -19 -13 4 13 17 17 34 32 39 32
4 0 2 -6 -5 -12z m202 -6 c0 -5 -12 -14 -27 -21 l-28 -13 20 21 c21 21 35 26
35 13z m-397 -40 c-115 -101 -143 -125 -183 -156 -25 -20 -50 -40 -56 -45 -7
-6 -14 -7 -18 -4 -3 3 12 17 33 32 35 23 106 83 211 178 19 17 37 29 39 27 3
-3 -9 -17 -26 -32z m77 34 c0 -2 -8 -10 -17 -17 -16 -13 -17 -12 -4 4 13 16
21 21 21 13z m45 -56 c-3 -5 -12 -10 -18 -10 -7 0 -6 4 3 10 19 12 23 12 15 0z
m475 -5 c-7 -8 -17 -15 -22 -15 -11 0 14 29 26 30 5 0 3 -7 -4 -15z m-86 -69
c-10 -8 -21 -12 -23 -10 -3 2 4 11 15 18 10 8 21 12 23 10 3 -2 -4 -11 -15
-18z m-34 -26 c0 -5 -5 -10 -11 -10 -5 0 -7 5 -4 10 3 6 8 10 11 10 2 0 4 -4
4 -10z m154 -12 c-16 -19 -16 -20 -1 -9 9 8 20 12 22 9 9 -9 -163 -138 -177
-133 -7 3 -24 -5 -38 -17 -14 -13 -21 -20 -16 -15 6 4 14 7 19 7 13 0 -2 -19
-25 -31 -12 -7 -18 -7 -14 -1 3 6 1 12 -6 14 -6 2 19 26 56 54 38 27 94 70
125 96 60 50 87 63 55 26z m-649 -8 c-3 -5 -12 -10 -18 -10 -7 0 -6 4 3 10 19
12 23 12 15 0z m444 -19 c-13 -11 -26 -18 -28 -15 -2 2 7 12 20 23 13 11 26
18 28 15 2 -2 -7 -12 -20 -23z m-509 -25 c0 -2 -8 -10 -17 -17 -16 -13 -17
-12 -4 4 13 16 21 21 21 13z m520 -22 c-22 -25 -129 -104 -143 -104 -6 0 0 8
14 18 15 9 44 29 65 43 22 15 45 34 53 43 7 9 16 16 18 16 3 0 0 -7 -7 -16z
m-125 -34 c-9 -15 -65 -52 -65 -43 0 4 15 18 33 30 37 25 40 27 32 13z m55
-100 c8 -5 11 -10 5 -10 -5 0 -17 5 -25 10 -8 5 -10 10 -5 10 6 0 17 -5 25
-10z m-565 -10 c-3 -5 -12 -10 -18 -10 -7 0 -6 4 3 10 19 12 23 12 15 0z"/>
<path d="M953 182 c-34 -26 -62 -50 -63 -54 0 -7 60 34 120 82 52 41 3 17 -57
-28z"/>
<path d="M1888 2323 c7 -3 16 -2 19 1 4 3 -2 6 -13 5 -11 0 -14 -3 -6 -6z"/>
<path d="M1805 2299 c-22 -10 -44 -24 -50 -30 -9 -10 93 37 104 47 11 10 -18
1 -54 -17z"/>
<path d="M1910 2260 c-12 -8 -11 -10 8 -10 12 0 22 5 22 10 0 13 -11 13 -30 0z"/>
<path d="M2013 2263 c9 -2 23 -2 30 0 6 3 -1 5 -18 5 -16 0 -22 -2 -12 -5z"/>
<path d="M1675 2241 c-53 -25 -43 -26 20 -1 28 10 43 19 35 19 -8 0 -33 -8
-55 -18z"/>
<path d="M1815 2222 c-71 -39 -122 -72 -110 -72 6 0 26 10 45 22 19 11 60 34
90 49 30 16 48 28 40 28 -8 0 -37 -12 -65 -27z"/>
<path d="M1367 2084 c-43 -26 -76 -48 -74 -51 5 -4 157 86 157 93 0 7 -1 6
-83 -42z"/>
<path d="M1625 2118 c-30 -18 -40 -27 -131 -113 -46 -44 -134 -127 -196 -185
-61 -58 -147 -139 -190 -181 -43 -42 -81 -73 -84 -70 -4 3 -4 0 0 -7 6 -11 14
-8 35 11 14 14 66 62 115 108 49 46 106 100 126 119 21 19 96 91 168 160 71
69 145 135 163 148 35 23 30 31 -6 10z"/>
<path d="M2595 2040 c-3 -5 -2 -10 4 -10 5 0 13 5 16 10 3 6 2 10 -4 10 -5 0
-13 -4 -16 -10z"/>
<path d="M2705 2022 c-22 -9 -51 -24 -65 -33 -14 -9 -38 -24 -55 -33 -16 -8
-26 -15 -21 -16 5 0 42 18 83 40 40 22 91 44 111 49 27 7 30 9 12 9 -14 1 -43
-7 -65 -16z"/>
<path d="M1229 1990 c-13 -10 -20 -19 -16 -20 4 0 17 9 29 20 28 26 17 26 -13
0z"/>
<path d="M1087 1899 c-59 -39 -107 -75 -107 -80 0 -11 57 24 100 61 19 17 52
40 72 50 31 17 58 40 45 40 -2 0 -52 -32 -110 -71z"/>
<path d="M2760 1938 c-19 -5 -42 -16 -50 -23 -8 -7 -27 -17 -43 -20 -35 -9
-41 -19 -27 -47 10 -21 10 -21 -3 -6 -12 15 -18 16 -40 5 -15 -6 -27 -15 -27
-19 0 -5 -7 -8 -15 -8 -8 0 -15 -5 -15 -11 0 -5 -4 -7 -10 -4 -6 3 -7 -1 -4
-10 5 -11 10 -12 18 -5 9 6 17 6 26 -3 8 -7 10 -8 7 -1 -6 11 17 24 71 39 12
4 20 11 17 16 -4 5 -1 9 5 9 6 0 8 5 4 11 -10 17 17 29 39 17 10 -5 21 -7 25
-4 3 3 0 6 -6 6 -7 0 -12 4 -12 10 0 5 13 7 30 4 20 -4 30 -2 30 5 0 8 8 10
20 6 11 -4 20 -2 20 4 0 7 24 11 58 11 32 0 63 5 70 12 9 9 12 9 12 -1 0 -10
11 -12 43 -8 23 3 36 3 28 0 -10 -4 -6 -10 16 -22 57 -30 109 -69 139 -103 50
-57 63 -56 15 0 -43 52 -119 112 -141 112 -6 0 -9 4 -6 9 9 13 -22 22 -52 15
-21 -4 -24 -3 -12 5 20 14 -180 13 -230 -1z m139 -2 c-9 -8 -99 -13 -99 -5 0
5 23 9 52 9 28 0 49 -2 47 -4z m-119 -16 c-20 -13 -33 -13 -25 0 3 6 14 10 23
10 15 0 15 -2 2 -10z"/>
<path d="M2520 1920 c-14 -11 -20 -20 -15 -19 13 0 50 28 44 33 -2 3 -15 -4
-29 -14z"/>
<path d="M3133 1895 c2 -5 10 -10 17 -10 7 0 15 5 17 10 2 6 -6 11 -17 11 -11
0 -19 -5 -17 -11z"/>
<path d="M2376 1873 c-6 -14 -5 -15 5 -6 7 7 10 15 7 18 -3 3 -9 -2 -12 -12z"/>
<path d="M3165 1880 c-3 -5 34 -50 84 -100 49 -49 87 -90 84 -90 -3 0 -19 10
-36 22 -24 16 -28 18 -18 5 19 -24 49 -39 62 -31 6 4 -11 27 -42 58 -29 28
-65 72 -81 98 -30 48 -42 57 -53 38z"/>
<path d="M2985 1800 c55 -10 109 -21 120 -25 18 -6 18 -5 2 5 -23 15 -143 40
-187 39 -19 0 10 -9 65 -19z"/>
<path d="M950 1800 c0 -6 -11 -15 -25 -20 -14 -5 -25 -14 -25 -20 0 -16 13
-12 43 15 29 28 33 35 17 35 -5 0 -10 -5 -10 -10z"/>
<path d="M2768 1781 c-68 -29 -159 -90 -233 -156 -23 -21 -31 -33 -20 -29 20
7 20 6 1 -12 -12 -12 -20 -15 -23 -8 -4 11 -153 -125 -153 -139 0 -4 5 -7 11
-7 5 0 7 5 3 11 -4 7 -1 10 6 7 24 -8 21 -24 -7 -38 -40 -19 -63 -22 -41 -6
10 7 15 16 12 19 -11 10 -124 -111 -118 -127 3 -8 -7 -23 -25 -36 -29 -20 -41
-40 -23 -40 4 0 34 25 67 56 69 64 94 76 115 60 13 -10 13 -9 0 8 -13 17 -11
22 28 56 40 36 51 51 35 49 -21 -3 -37 2 -27 9 6 4 16 17 23 30 6 12 17 22 24
22 8 0 7 -4 -3 -10 -8 -5 -11 -12 -8 -16 4 -3 15 1 24 10 9 10 23 15 31 11 9
-3 31 9 54 30 22 19 35 35 29 35 -5 0 -25 -14 -45 -31 -32 -29 -49 -29 -25 -1
7 9 7 9 -2 2 -22 -18 -32 -10 -13 10 12 14 22 17 30 10 8 -7 19 -2 34 14 12
13 19 25 14 27 -5 2 -1 12 9 22 10 9 18 13 18 7 0 -5 5 -10 10 -10 6 0 10 7 8
16 -2 9 12 27 30 41 39 31 42 23 5 -12 -31 -28 -25 -33 12 -9 14 9 22 20 19
25 -3 5 5 8 18 6 15 -1 22 3 20 12 -2 8 3 11 12 8 9 -4 37 3 63 15 26 12 80
29 118 38 l70 17 -42 4 c-23 2 -39 1 -36 -4 2 -4 -8 -5 -24 -2 -21 4 -23 3 -8
-3 17 -8 15 -9 -13 -15 -17 -4 -50 -15 -73 -26 -39 -19 -69 -19 -69 1 0 5 8 7
18 4 9 -3 31 1 47 9 l30 14 -30 -4 c-37 -6 -20 2 65 31 41 14 56 23 40 23 -14
0 -55 -12 -92 -28z m-88 -71 c-8 -5 -19 -10 -25 -10 -5 0 -3 5 5 10 8 5 20 10
25 10 6 0 3 -5 -5 -10z m-230 -190 c0 -5 -4 -10 -10 -10 -5 0 -10 5 -10 10 0
6 5 10 10 10 6 0 10 -4 10 -10z m-139 -147 c11 -15 11 -16 0 -6 -15 13 -42 -4
-35 -22 4 -10 -45 -45 -62 -45 -5 0 12 20 36 45 24 25 45 45 46 45 1 0 8 -8
15 -17z"/>
<path d="M2296 1783 c-6 -14 -5 -15 5 -6 7 7 10 15 7 18 -3 3 -9 -2 -12 -12z"/>
<path d="M2550 1781 c0 -7 -7 -10 -18 -7 -24 8 -61 -18 -42 -29 8 -5 11 -4 7
1 -3 5 3 10 13 10 10 0 17 -3 14 -7 -2 -4 4 -10 13 -13 10 -4 14 -4 11 0 -4 4
-3 15 3 26 6 11 8 22 5 26 -3 3 -6 0 -6 -7z"/>
<path d="M2995 1770 c44 -11 67 -11 60 0 -3 6 -25 9 -48 9 -40 -1 -40 -2 -12
-9z"/>
<path d="M2242 1735 c-17 -37 -14 -45 4 -12 9 16 14 31 11 33 -2 2 -9 -7 -15
-21z"/>
<path d="M3129 1740 c24 -11 46 -19 48 -16 5 5 -62 36 -79 36 -7 0 7 -9 31
-20z"/>
<path d="M845 1715 c-21 -19 -44 -33 -50 -32 -5 1 -9 -4 -7 -11 2 -9 -4 -12
-16 -8 -12 4 -27 -1 -39 -11 -10 -10 -13 -14 -6 -9 18 12 17 -8 -1 -23 -7 -6
-22 -9 -32 -5 -14 4 -15 3 -5 -4 11 -8 11 -11 0 -18 -8 -4 -14 -3 -17 5 -3 9
-7 9 -18 0 -8 -6 -11 -16 -8 -21 4 -6 0 -14 -7 -19 -7 -4 -11 -10 -9 -13 3 -2
59 36 125 85 131 98 141 107 134 113 -2 2 -22 -11 -44 -29z"/>
<path d="M816 1725 c-11 -8 -17 -17 -14 -20 2 -3 13 4 23 15 21 23 18 25 -9 5z"/>
<path d="M2469 1731 c-1 -3 -1 -10 0 -14 1 -5 -3 -6 -9 -2 -17 10 -150 -136
-150 -165 0 -7 -3 -11 -6 -7 -3 3 -22 -15 -41 -41 -20 -26 -57 -71 -82 -101
-25 -30 -69 -86 -98 -125 -29 -39 -57 -76 -63 -83 -5 -7 -10 -15 -10 -18 0
-20 -151 -204 -219 -269 -29 -26 -50 -51 -47 -54 9 -8 144 132 219 228 37 47
71 90 75 95 5 6 6 17 4 24 -3 10 0 12 12 8 11 -4 16 -1 16 12 0 9 11 28 25 41
13 12 22 26 20 30 -7 11 20 31 29 23 4 -4 4 0 1 9 -4 9 -1 19 6 24 8 5 10 3 4
-7 -5 -8 1 -6 13 5 12 10 20 21 18 25 -7 11 22 43 33 36 6 -3 11 1 11 9 0 9 5
16 11 16 5 0 7 4 4 10 -3 5 3 15 15 22 11 7 20 19 20 26 0 7 5 10 10 7 6 -3
10 0 10 7 0 8 13 25 30 38 16 14 29 31 30 38 0 6 9 12 19 12 20 0 35 25 25 41
-3 5 7 21 22 36 l27 27 -6 -24 -6 -25 21 25 c11 14 26 24 32 22 7 -2 6 1 -1 9
-7 7 -13 18 -13 24 0 5 4 4 9 -3 6 -10 10 -10 20 1 9 12 7 15 -14 15 -14 0
-26 -3 -26 -7z m-69 -111 c0 -5 -2 -10 -4 -10 -3 0 -8 5 -11 10 -3 6 -1 10 4
10 6 0 11 -4 11 -10z"/>
<path d="M2978 1723 c12 -2 32 -2 45 0 12 2 2 4 -23 4 -25 0 -35 -2 -22 -4z"/>
<path d="M3200 1714 c0 -8 5 -12 10 -9 6 4 8 11 5 16 -9 14 -15 11 -15 -7z"/>
<path d="M2828 1713 c7 -3 16 -2 19 1 4 3 -2 6 -13 5 -11 0 -14 -3 -6 -6z"/>
<path d="M3120 1714 c0 -2 9 -8 20 -14 11 -6 20 -7 20 -2 0 6 -9 12 -20 15
-11 3 -20 3 -20 1z"/>
<path d="M709 1671 c-70 -38 -118 -71 -106 -71 4 0 44 21 90 47 96 55 91 52
86 57 -2 2 -34 -13 -70 -33z"/>
<path d="M3225 1700 c-3 -5 -2 -10 4 -10 5 0 13 5 16 10 3 6 2 10 -4 10 -5 0
-13 -4 -16 -10z"/>
<path d="M2748 1693 c7 -3 16 -2 19 1 4 3 -2 6 -13 5 -11 0 -14 -3 -6 -6z"/>
<path d="M2211 1663 c-10 -26 -10 -27 4 -9 8 11 15 23 15 28 0 15 -7 8 -19
-19z"/>
<path d="M3270 1675 c25 -15 25 -15 -15 -10 l-40 5 30 -14 c22 -10 34 -11 47
-3 9 6 21 8 25 4 4 -5 2 -12 -6 -16 -17 -11 12 -23 34 -15 11 5 14 1 9 -12 -4
-12 -3 -15 3 -7 6 8 13 9 23 2 13 -8 13 -10 0 -20 -12 -8 -10 -9 9 -4 14 4 21
3 18 -2 -6 -10 45 -53 66 -57 18 -3 53 -25 42 -26 -5 -1 30 -14 78 -31 64 -21
94 -26 105 -19 14 8 14 10 2 11 -8 1 -23 0 -34 -1 -10 -1 -16 2 -13 7 3 4 -11
9 -29 10 -19 1 -56 14 -82 30 -26 15 -51 28 -57 28 -17 1 -36 16 -30 25 3 5
-9 19 -27 31 -18 13 -35 27 -36 31 -2 5 -8 6 -13 2 -5 -3 -9 -1 -9 4 0 10 -65
47 -100 56 l-25 7 25 -16z"/>
<path d="M2485 1659 c-11 -16 -1 -19 13 -3 7 8 8 14 3 14 -5 0 -13 -5 -16 -11z"/>
<path d="M2895 1664 c68 -7 242 -8 232 -2 -7 4 -68 7 -137 6 -69 -1 -111 -3
-95 -4z"/>
<path d="M2226 1643 c-6 -14 -5 -15 5 -6 7 7 10 15 7 18 -3 3 -9 -2 -12 -12z"/>
<path d="M2788 1643 c6 -2 18 -2 25 0 6 3 1 5 -13 5 -14 0 -19 -2 -12 -5z"/>
<path d="M3158 1643 c7 -3 16 -2 19 1 4 3 -2 6 -13 5 -11 0 -14 -3 -6 -6z"/>
<path d="M774 1624 c-18 -14 -18 -15 4 -4 12 6 22 13 22 15 0 8 -5 6 -26 -11z"/>
<path d="M2622 1625 c-7 -8 -9 -15 -4 -15 5 0 15 7 22 15 16 19 -1 19 -18 0z"/>
<path d="M2790 1614 c-41 -14 -77 -28 -80 -31 -8 -8 64 8 74 17 4 4 21 4 38
-1 24 -6 28 -6 19 5 -9 11 17 13 141 13 84 0 155 -4 159 -8 3 -5 30 -11 60
-13 l54 -5 -69 25 c-60 21 -87 24 -195 23 -107 0 -138 -4 -201 -25z"/>
<path d="M533 1566 c-23 -13 -66 -32 -95 -40 -56 -17 -127 -49 -93 -42 54 12
193 67 230 92 33 23 3 15 -42 -10z"/>
<path d="M2626 1578 c3 -5 10 -6 15 -3 13 9 11 12 -6 12 -8 0 -12 -4 -9 -9z"/>
<path d="M3250 1579 c-12 -8 -12 -10 5 -8 11 1 33 -3 48 -9 44 -19 46 -13 3 8
-22 11 -40 20 -40 20 -1 0 -8 -5 -16 -11z"/>
<path d="M699 1563 c-13 -16 -12 -17 4 -4 9 7 17 15 17 17 0 8 -8 3 -21 -13z"/>
<path d="M2670 1570 c-13 -8 -13 -10 2 -10 9 0 20 5 23 10 8 13 -5 13 -25 0z"/>
<path d="M2805 1555 c-27 -8 -59 -14 -71 -15 -11 0 -29 -7 -40 -16 -19 -15
-19 -16 1 -9 80 27 147 39 260 45 l130 7 -115 1 c-70 0 -134 -5 -165 -13z"/>
<path d="M3161 1566 c2 -2 18 -6 34 -10 22 -5 26 -4 15 4 -14 9 -59 15 -49 6z"/>
<path d="M589 1546 c10 -11 8 -16 -8 -21 -12 -3 -21 -11 -21 -16 0 -6 13 -2
30 7 22 14 27 21 18 31 -6 7 -15 13 -20 13 -6 0 -6 -6 1 -14z"/>
<path d="M1000 1552 c0 -12 19 -26 26 -19 2 2 -2 10 -11 17 -9 8 -15 8 -15 2z"/>
<path d="M2572 1533 c-24 -24 -24 -25 -2 -8 42 33 44 35 37 35 -4 0 -19 -12
-35 -27z"/>
<path d="M2640 1550 c0 -5 -17 -18 -37 -29 -35 -17 -36 -19 -11 -18 14 1 24 6
21 10 -3 5 3 7 12 5 12 -2 19 5 21 20 2 12 2 22 -1 22 -3 0 -5 -4 -5 -10z"/>
<path d="M533 1530 c-34 -14 -28 -21 7 -9 17 6 30 13 30 15 0 6 -12 4 -37 -6z"/>
<path d="M3280 1530 c8 -5 20 -10 25 -10 6 0 3 5 -5 10 -8 5 -19 10 -25 10 -5
0 -3 -5 5 -10z"/>
<path d="M3390 1520 c8 -5 20 -10 25 -10 6 0 3 5 -5 10 -8 5 -19 10 -25 10 -5
0 -3 -5 5 -10z"/>
<path d="M944 1505 c-4 -8 -12 -15 -19 -15 -12 0 -41 -28 -46 -45 -2 -5 -10
-9 -17 -7 -8 2 -11 -1 -7 -7 3 -6 12 -11 19 -11 18 0 49 37 41 49 -4 7 3 10
17 8 17 -1 23 3 22 16 -2 13 3 16 20 12 17 -5 18 -4 6 4 -21 15 -30 14 -36 -4z"/>
<path d="M2125 1509 c-4 -6 -5 -12 -2 -15 2 -3 7 2 10 11 7 17 1 20 -8 4z"/>
<path d="M470 1500 c-8 -5 -10 -10 -5 -10 6 0 17 5 25 10 8 5 11 10 5 10 -5 0
-17 -5 -25 -10z"/>
<path d="M580 1490 c-14 -11 -38 -22 -53 -26 -16 -3 -26 -8 -23 -11 9 -9 73
17 91 37 23 25 17 25 -15 0z"/>
<path d="M470 1479 c-24 -11 -52 -18 -62 -16 -10 3 -15 0 -12 -7 3 -8 -12 -18
-38 -25 -24 -7 -47 -16 -53 -21 -14 -10 -169 -56 -242 -71 -35 -7 -63 -17 -63
-21 0 -10 -2 -10 56 6 27 8 63 17 79 20 87 14 446 156 395 156 -8 0 -35 -10
-60 -21z"/>
<path d="M3610 1490 c8 -5 20 -10 25 -10 6 0 3 5 -5 10 -8 5 -19 10 -25 10 -5
0 -3 -5 5 -10z"/>
<path d="M2437 1479 c-9 -5 -21 -8 -26 -5 -5 3 -11 0 -14 -7 -8 -21 29 -18 49
4 19 21 17 23 -9 8z"/>
<path d="M2537 1472 c-15 -16 -15 -18 2 -18 12 0 17 5 13 15 -3 9 -1 12 6 7 7
-4 12 -2 12 3 0 16 -15 13 -33 -7z"/>
<path d="M248 1458 c-32 -11 -58 -24 -58 -29 0 -6 7 -5 18 0 9 5 38 15 65 23
26 7 47 16 47 20 0 11 -6 10 -72 -14z"/>
<path d="M2484 1458 l-19 -23 23 19 c21 18 27 26 19 26 -2 0 -12 -10 -23 -22z"/>
<path d="M2600 1470 c-9 -6 -10 -10 -3 -10 6 0 15 5 18 10 8 12 4 12 -15 0z"/>
<path d="M4734 1458 l-19 -23 23 19 c12 11 22 21 22 23 0 8 -8 2 -26 -19z"/>
<path d="M330 1450 c-18 -12 -2 -12 25 0 13 6 15 9 5 9 -8 0 -22 -4 -30 -9z"/>
<path d="M451 1430 c-13 -11 -19 -20 -13 -20 5 0 20 9 33 20 13 10 20 19 14
19 -5 0 -21 -9 -34 -19z"/>
<path d="M3712 1441 c-11 -6 -10 -10 4 -15 9 -3 19 -4 22 -1 3 3 0 5 -7 5 -7
0 -9 5 -6 10 7 12 4 12 -13 1z"/>
<path d="M271 1429 c-13 -5 -21 -12 -18 -15 3 -3 18 1 34 10 31 17 21 20 -16
5z"/>
<path d="M2836 1433 c-2 -3 -21 -5 -40 -5 -20 0 -36 -4 -36 -9 0 -4 -6 -6 -14
-3 -20 8 -131 -40 -179 -78 -61 -47 -57 -44 -116 -98 -30 -27 -52 -52 -50 -55
3 -3 34 23 70 56 165 157 243 181 609 183 140 0 235 4 210 8 -50 8 -446 9
-454 1z"/>
<path d="M2495 1420 c-3 -6 1 -7 9 -4 18 7 21 14 7 14 -6 0 -13 -4 -16 -10z"/>
<path d="M3755 1420 c-8 -13 9 -20 24 -11 10 6 9 10 -3 14 -8 3 -18 2 -21 -3z"/>
<path d="M158 1413 c7 -3 16 -2 19 1 4 3 -2 6 -13 5 -11 0 -14 -3 -6 -6z"/>
<path d="M825 1410 c3 -5 13 -10 21 -10 8 0 12 5 9 10 -3 6 -13 10 -21 10 -8
0 -12 -4 -9 -10z"/>
<path d="M3355 1410 c11 -5 29 -8 40 -8 16 0 15 2 -5 8 -34 11 -60 11 -35 0z"/>
<path d="M205 1400 c-13 -6 -15 -9 -5 -9 8 0 22 4 30 9 18 12 2 12 -25 0z"/>
<path d="M385 1400 c-8 -13 5 -13 25 0 13 8 13 10 -2 10 -9 0 -20 -4 -23 -10z"/>
<path d="M2398 1350 c-45 -39 -61 -58 -48 -57 10 1 17 3 15 5 -4 5 77 82 86
82 4 0 9 7 13 15 3 8 4 15 3 15 -1 0 -32 -27 -69 -60z"/>
<path d="M3806 1395 c4 -8 11 -15 16 -15 6 0 5 6 -2 15 -7 8 -14 15 -16 15 -2
0 -1 -7 2 -15z"/>
<path d="M4610 1400 c-8 -5 -10 -10 -5 -10 6 0 17 5 25 10 8 5 11 10 5 10 -5
0 -17 -5 -25 -10z"/>
<path d="M65 1390 c-13 -6 -15 -9 -5 -9 8 0 22 4 30 9 18 12 2 12 -25 0z"/>
<path d="M806 1386 c6 -16 -29 -31 -46 -21 -5 3 -10 1 -10 -4 0 -15 43 -14 65
2 10 8 15 19 11 25 -10 17 -26 15 -20 -2z"/>
<path d="M2959 1387 c5 -5 19 -7 32 -5 20 3 19 5 -9 9 -20 3 -29 2 -23 -4z"/>
<path d="M3268 1393 c12 -2 30 -2 40 0 9 3 -1 5 -23 4 -22 0 -30 -2 -17 -4z"/>
<path d="M340 1383 c-8 -3 -39 -15 -68 -25 -29 -11 -51 -22 -49 -24 4 -5 136
42 146 51 6 6 -10 5 -29 -2z"/>
<path d="M2798 1383 c7 -3 16 -2 19 1 4 3 -2 6 -13 5 -11 0 -14 -3 -6 -6z"/>
<path d="M3053 1383 c9 -2 23 -2 30 0 6 3 -1 5 -18 5 -16 0 -22 -2 -12 -5z"/>
<path d="M3368 1383 c7 -3 16 -2 19 1 4 3 -2 6 -13 5 -11 0 -14 -3 -6 -6z"/>
<path d="M3850 1380 c8 -5 22 -9 30 -9 10 0 8 3 -5 9 -27 12 -43 12 -25 0z"/>
<path d="M7 1373 c7 -2 19 -2 26 0 6 3 1 5 -13 5 -14 0 -19 -2 -13 -5z"/>
<path d="M2888 1373 c7 -3 16 -2 19 1 4 3 -2 6 -13 5 -11 0 -14 -3 -6 -6z"/>
<path d="M3413 1373 c9 -2 23 -2 30 0 6 3 -1 5 -18 5 -16 0 -22 -2 -12 -5z"/>
<path d="M4513 1373 c9 -2 25 -2 35 0 9 3 1 5 -18 5 -19 0 -27 -2 -17 -5z"/>
<path d="M2799 1361 c-22 -5 -25 -8 -14 -18 10 -9 16 -9 20 -2 4 6 17 14 29
19 24 10 4 11 -35 1z"/>
<path d="M3203 1363 c26 -2 68 -2 95 0 26 2 4 3 -48 3 -52 0 -74 -1 -47 -3z"/>
<path d="M4403 1363 c9 -2 23 -2 30 0 6 3 -1 5 -18 5 -16 0 -22 -2 -12 -5z"/>
<path d="M2100 1345 c-7 -9 -10 -18 -7 -21 3 -3 10 4 17 15 13 25 8 27 -10 6z"/>
<path d="M2993 1353 c9 -2 25 -2 35 0 9 3 1 5 -18 5 -19 0 -27 -2 -17 -5z"/>
<path d="M4188 1353 c7 -3 16 -2 19 1 4 3 -2 6 -13 5 -11 0 -14 -3 -6 -6z"/>
<path d="M695 1327 c-18 -18 -18 -19 -1 -10 10 6 28 9 40 7 13 -3 15 -2 6 2
-8 4 -17 10 -20 14 -3 4 -14 -2 -25 -13z"/>
<path d="M805 1339 c-4 -6 -5 -12 -2 -15 2 -3 7 2 10 11 7 17 1 20 -8 4z"/>
<path d="M2860 1334 c-30 -8 -66 -23 -80 -33 -45 -32 -91 -53 -107 -46 -12 4
-13 2 -5 -8 8 -10 6 -16 -11 -27 -12 -7 -30 -14 -39 -15 -10 -1 -21 -5 -25
-10 -5 -4 1 -5 12 -1 16 6 15 2 -8 -21 -23 -24 -29 -26 -38 -13 -8 11 -9 9 -4
-9 6 -20 4 -23 -9 -18 -10 4 -15 3 -12 -2 7 -10 -71 -74 -82 -67 -5 3 -21 -6
-38 -20 l-29 -25 28 17 c15 9 30 15 32 12 8 -8 -52 -54 -65 -50 -8 3 -10 0 -5
-7 8 -14 -24 -42 -42 -36 -7 2 -10 -2 -6 -11 3 -10 -5 -18 -26 -25 -17 -6 -31
-17 -31 -25 0 -13 -12 -18 -32 -15 -4 0 -5 -5 -2 -12 4 -12 -62 -54 -79 -49
-5 1 -6 -1 -3 -6 3 -5 -15 -18 -39 -30 -25 -12 -45 -26 -45 -31 0 -11 103 47
170 96 84 61 100 75 175 141 17 15 66 59 110 97 44 39 82 72 85 75 3 3 25 22
50 41 76 60 162 107 235 128 80 22 48 27 -35 5z"/>
<path d="M110 1315 c-58 -17 -20 -17 45 0 28 7 39 13 25 13 -14 0 -45 -6 -70
-13z"/>
<path d="M2704 1315 c-10 -8 -14 -14 -9 -14 6 0 19 6 29 14 11 8 15 15 10 15
-6 0 -19 -7 -30 -15z"/>
<path d="M3328 1323 c6 -2 18 -2 25 0 6 3 1 5 -13 5 -14 0 -19 -2 -12 -5z"/>
<path d="M4218 1323 c7 -3 16 -2 19 1 4 3 -2 6 -13 5 -11 0 -14 -3 -6 -6z"/>
<path d="M3628 1313 c7 -3 16 -2 19 1 4 3 -2 6 -13 5 -11 0 -14 -3 -6 -6z"/>
<path d="M697 1299 c-9 -5 -23 -7 -30 -3 -9 6 -8 3 1 -8 12 -15 15 -15 33 0
28 24 26 29 -4 11z"/>
<path d="M28 1293 c6 -2 18 -2 25 0 6 3 1 5 -13 5 -14 0 -19 -2 -12 -5z"/>
<path d="M643 1275 c5 -11 3 -22 -5 -27 -8 -5 -9 -8 -2 -8 23 0 33 24 16 40
-14 13 -15 12 -9 -5z"/>
<path d="M2570 1280 c-8 -5 -10 -10 -5 -10 6 0 17 5 25 10 8 5 11 10 5 10 -5
0 -17 -5 -25 -10z"/>
<path d="M4455 1280 c-8 -13 5 -13 25 0 13 8 13 10 -2 10 -9 0 -20 -4 -23 -10z"/>
<path d="M2305 1270 c-3 -6 1 -7 9 -4 18 7 21 14 7 14 -6 0 -13 -4 -16 -10z"/>
<path d="M2349 1253 l-24 -28 28 24 c25 23 32 31 24 31 -2 0 -14 -12 -28 -27z"/>
<path d="M2958 1273 c7 -3 16 -2 19 1 4 3 -2 6 -13 5 -11 0 -14 -3 -6 -6z"/>
<path d="M3628 1273 c7 -3 16 -2 19 1 4 3 -2 6 -13 5 -11 0 -14 -3 -6 -6z"/>
<path d="M4088 1273 c7 -3 16 -2 19 1 4 3 -2 6 -13 5 -11 0 -14 -3 -6 -6z"/>
<path d="M4410 1276 c0 -2 7 -7 16 -10 8 -3 12 -2 9 4 -6 10 -25 14 -25 6z"/>
<path d="M88 1263 c7 -3 16 -2 19 1 4 3 -2 6 -13 5 -11 0 -14 -3 -6 -6z"/>
<path d="M2618 1263 c7 -3 16 -2 19 1 4 3 -2 6 -13 5 -11 0 -14 -3 -6 -6z"/>
<path d="M2524 1238 l-19 -23 23 19 c21 18 27 26 19 26 -2 0 -12 -10 -23 -22z"/>
<path d="M2275 1239 c-11 -16 -1 -19 13 -3 7 8 8 14 3 14 -5 0 -13 -5 -16 -11z"/>
<path d="M3928 1243 c7 -3 16 -2 19 1 4 3 -2 6 -13 5 -11 0 -14 -3 -6 -6z"/>
<path d="M2555 1220 c-3 -5 1 -10 9 -10 9 0 16 5 16 10 0 6 -4 10 -9 10 -6 0
-13 -4 -16 -10z"/>
<path d="M536 1205 c-20 -8 -25 -14 -15 -18 15 -6 6 -15 -53 -48 -22 -13 -25
-18 -13 -23 10 -4 37 12 75 43 59 49 61 69 6 46z"/>
<path d="M2188 1160 c-70 -63 -81 -70 -71 -44 4 12 -2 10 -20 -7 -28 -24 -38
-41 -12 -19 29 24 27 1 -2 -27 -96 -92 -124 -114 -136 -107 -6 4 -9 4 -5 -1 4
-4 -1 -20 -12 -35 -18 -26 -19 -28 -3 -26 10 2 19 8 19 14 1 7 2 16 3 21 0 5
9 8 18 7 10 0 18 5 19 12 3 24 4 24 19 12 11 -9 21 -6 50 16 19 15 33 29 30
33 -3 3 -9 1 -13 -4 -17 -24 -52 -46 -62 -40 -12 8 117 134 138 135 6 0 12 7
12 16 0 9 5 12 13 8 6 -4 9 -4 5 1 -9 9 42 51 57 47 5 -2 7 0 2 4 -4 4 0 16
10 26 31 35 7 18 -59 -42z"/>
<path d="M2465 1190 c-10 -11 -14 -20 -9 -20 5 0 15 9 22 20 7 11 11 20 9 20
-2 0 -12 -9 -22 -20z"/>
<path d="M2736 1177 c-17 -14 -26 -29 -22 -35 9 -15 38 -1 75 36 l26 25 -25
-17 c-30 -20 -52 -21 -26 -1 11 8 16 15 10 15 -5 0 -22 -11 -38 -23z m14 -16
c0 -5 -7 -11 -15 -15 -15 -5 -20 5 -8 17 9 10 23 9 23 -2z"/>
<path d="M2169 1173 c-13 -16 -12 -17 4 -4 16 13 21 21 13 21 -2 0 -10 -8 -17
-17z"/>
<path d="M2224 1139 c-71 -62 -73 -64 -53 -53 21 12 125 104 118 104 -3 0 -32
-23 -65 -51z"/>
<path d="M2310 1111 c-41 -38 -78 -67 -82 -64 -5 2 -8 -3 -8 -11 0 -9 -3 -16
-8 -16 -4 0 -18 -10 -32 -23 -14 -12 -48 -41 -76 -62 -76 -59 -268 -227 -273
-238 -5 -12 272 219 432 361 113 101 135 122 124 122 -2 0 -36 -31 -77 -69z"/>
<path d="M2488 1163 c-10 -2 -18 -9 -18 -14 0 -5 -11 -14 -25 -19 -16 -6 -23
-14 -19 -25 3 -8 2 -15 -4 -15 -22 0 -21 32 0 51 13 10 19 18 14 19 -6 0 -20
-10 -32 -21 -21 -20 -22 -23 -7 -38 15 -15 15 -16 0 -19 -9 -2 -14 -9 -10 -18
4 -10 0 -12 -13 -7 -12 4 -15 3 -10 -5 9 -14 -3 -15 -23 -3 -12 8 -11 13 10
31 l24 22 -25 -15 c-14 -8 -25 -21 -25 -28 0 -8 -4 -21 -9 -29 -7 -12 -6 -13
5 -2 16 14 33 16 24 2 -15 -24 23 -7 58 27 29 26 41 33 47 23 4 -7 13 -9 19
-6 16 11 13 26 -4 20 -25 -10 -17 4 23 41 36 33 36 38 0 28z"/>
<path d="M354 1120 c-6 -6 -22 -13 -36 -15 -31 -6 -139 -55 -121 -55 7 0 36
11 65 23 29 13 58 25 63 26 39 8 55 14 55 22 0 12 -14 11 -26 -1z"/>
<path d="M396 1111 c-3 -5 -17 -12 -31 -15 -14 -4 -55 -20 -90 -36 -80 -37
-111 -45 -119 -31 -4 6 -13 11 -19 11 -7 0 -6 -4 3 -11 12 -9 11 -10 -8 -6
-14 3 -20 1 -15 -6 4 -6 -2 -8 -15 -5 -12 4 -25 2 -28 -3 -3 -5 -2 -9 3 -8 41
7 40 -5 -4 -26 -28 -15 -57 -33 -65 -42 -7 -9 19 1 59 23 42 23 67 42 60 46
-6 4 2 7 18 6 33 0 140 35 161 53 8 6 14 9 14 5 0 -4 17 3 38 13 52 28 69 41
55 41 -6 0 -14 -4 -17 -9z"/>
<path d="M2684 1098 c-17 -13 -39 -31 -48 -41 -10 -9 -32 -25 -48 -33 -28 -15
-30 -15 -25 0 3 8 3 18 -2 20 -4 3 -7 -10 -7 -28 1 -41 -3 -43 145 81 34 29
23 29 -15 1z"/>
<path d="M2604 1064 c-19 -17 -22 -22 -8 -16 20 10 52 42 42 42 -3 0 -18 -12
-34 -26z"/>
<path d="M2915 1070 c-3 -6 1 -7 9 -4 18 7 21 14 7 14 -6 0 -13 -4 -16 -10z"/>
<path d="M288 1035 c-43 -18 -103 -47 -133 -64 -31 -18 -60 -29 -65 -26 -6 3
-18 1 -27 -4 -10 -6 -15 -11 -11 -11 12 0 -25 -40 -37 -40 -5 0 -3 5 5 11 12
8 12 10 1 7 -8 -2 -16 -14 -18 -26 -3 -21 2 -20 56 17 32 22 119 69 192 105
144 70 161 84 37 31z"/>
<path d="M3293 1063 c9 -2 23 -2 30 0 6 3 -1 5 -18 5 -16 0 -22 -2 -12 -5z"/>
<path d="M2111 1040 c-31 -26 -17 -26 16 0 14 11 22 20 17 20 -5 -1 -20 -10
-33 -20z"/>
<path d="M3115 1050 c-3 -6 1 -7 9 -4 18 7 21 14 7 14 -6 0 -13 -4 -16 -10z"/>
<path d="M2253 1005 c-26 -24 -45 -44 -42 -45 3 0 28 20 55 45 27 24 46 45 42
45 -3 0 -28 -20 -55 -45z"/>
<path d="M2009 1023 c-13 -16 -12 -17 4 -4 16 13 21 21 13 21 -2 0 -10 -8 -17
-17z"/>
<path d="M4195 1019 c-4 -6 -5 -12 -2 -15 2 -3 7 2 10 11 7 17 1 20 -8 4z"/>
<path d="M2297 1003 c10 -3 9 -8 -2 -19 -8 -9 -19 -13 -23 -10 -5 3 -9 -1 -9
-9 0 -19 3 -19 38 6 35 25 37 34 7 36 -13 0 -17 -1 -11 -4z"/>
<path d="M3906 965 c-11 -8 -15 -15 -9 -15 6 0 16 7 23 15 16 19 11 19 -14 0z"/>
<path d="M216 961 c-4 -5 3 -7 14 -4 23 6 26 13 6 13 -8 0 -17 -4 -20 -9z"/>
<path d="M2186 943 c-6 -14 -5 -15 5 -6 7 7 10 15 7 18 -3 3 -9 -2 -12 -12z"/>
<path d="M2433 947 l-23 -12 21 -13 c26 -17 18 -27 -10 -13 -17 10 -19 8 -16
-9 2 -11 -3 -24 -13 -30 -16 -9 -16 -9 1 -10 9 0 17 4 17 9 0 5 14 14 30 21
30 13 30 13 10 27 -20 14 -20 16 -3 29 22 17 15 17 -14 1z"/>
<path d="M2499 943 c-13 -17 -13 -17 6 -3 11 8 22 16 24 17 2 2 0 3 -6 3 -6 0
-17 -8 -24 -17z"/>
<path d="M1979 913 l-24 -28 28 24 c25 23 32 31 24 31 -2 0 -14 -12 -28 -27z"/>
<path d="M2175 888 c-38 -27 -71 -53 -73 -59 -6 -15 16 -10 35 9 10 10 37 31
61 47 42 28 58 43 51 49 -2 2 -35 -19 -74 -46z"/>
<path d="M3982 914 c-7 -8 -8 -14 -3 -14 10 0 25 19 20 25 -2 1 -10 -3 -17
-11z"/>
<path d="M2106 880 c-26 -21 -54 -43 -64 -49 -9 -5 -14 -12 -11 -16 4 -3 19 6
35 19 84 73 98 86 92 86 -4 0 -27 -18 -52 -40z"/>
<path d="M3478 913 c23 -2 61 -2 85 0 23 2 4 4 -43 4 -47 0 -66 -2 -42 -4z"/>
<path d="M3759 896 c-4 -4 -172 -19 -494 -45 -100 -8 -139 -16 -232 -50 -132
-47 -285 -113 -279 -119 3 -2 45 12 93 31 155 63 267 105 308 115 22 6 105 14
185 17 142 6 448 40 458 50 6 6 -33 7 -39 1z"/>
<path d="M3931 869 c-35 -28 -22 -32 14 -3 17 13 26 24 20 24 -5 -1 -21 -10
-34 -21z"/>
<path d="M4076 882 c-3 -5 1 -9 9 -9 8 0 12 4 9 9 -3 4 -7 8 -9 8 -2 0 -6 -4
-9 -8z"/>
<path d="M1884 868 c-3 -5 -13 -7 -21 -3 -13 5 -14 3 -3 -10 12 -14 14 -14 22
-1 5 8 17 13 30 11 11 -3 18 -1 14 2 -11 11 -35 12 -42 1z"/>
<path d="M42 858 c3 -7 -7 -23 -21 -36 -19 -17 -20 -20 -6 -13 26 14 55 37 55
44 0 2 -7 8 -16 11 -10 4 -14 1 -12 -6z"/>
<path d="M2348 843 c7 -3 16 -2 19 1 4 3 -2 6 -13 5 -11 0 -14 -3 -6 -6z"/>
<path d="M3974 828 l-19 -23 23 19 c21 18 27 26 19 26 -2 0 -12 -10 -23 -22z"/>
<path d="M1820 811 c-25 -22 -30 -30 -19 -36 8 -5 11 -5 7 0 -4 4 5 17 20 29
26 21 39 23 34 4 -1 -5 2 -7 8 -3 8 5 7 11 -1 21 -15 18 -11 19 -49 -15z"/>
<path d="M2080 811 c0 -7 -4 -10 -9 -6 -6 3 -15 -4 -21 -15 -11 -20 -10 -21 9
-11 23 13 35 30 27 38 -3 4 -6 1 -6 -6z"/>
<path d="M1984 788 c-16 -13 -40 -32 -54 -44 -77 -66 -178 -148 -198 -162 -12
-8 -20 -17 -18 -20 3 -2 28 14 55 37 44 37 53 41 73 31 21 -10 21 -10 6 3 -16
13 -15 16 23 46 22 18 43 30 47 26 4 -4 -5 -16 -21 -27 -15 -11 -27 -24 -27
-30 0 -5 15 3 34 19 18 15 31 32 28 37 -3 5 2 7 11 3 10 -3 17 -2 17 4 0 6 5
7 10 4 6 -3 10 -1 10 4 0 14 -16 14 -41 1 -30 -17 -22 4 11 29 17 12 36 19 42
15 7 -5 8 -3 4 5 -5 7 0 18 10 26 11 8 16 15 13 15 -4 0 -19 -10 -35 -22z"/>
<path d="M1751 787 c2 -1 13 -9 24 -17 19 -14 19 -14 6 3 -7 9 -18 17 -24 17
-6 0 -8 -1 -6 -3z"/>
<path d="M3750 780 c-9 -6 -10 -10 -3 -10 6 0 15 5 18 10 8 12 4 12 -15 0z"/>
<path d="M1748 746 c-10 -7 -18 -16 -18 -19 0 -12 28 4 34 19 6 17 6 17 -16 0z"/>
<path d="M2155 739 c-39 -24 -21 -24 25 1 19 11 28 19 20 19 -8 0 -28 -9 -45
-20z"/>
<path d="M1754 708 l-19 -23 23 19 c21 18 27 26 19 26 -2 0 -12 -10 -23 -22z"/>
<path d="M2010 715 c-14 -8 -20 -14 -15 -14 6 0 21 6 35 14 14 8 21 14 15 14
-5 0 -21 -6 -35 -14z"/>
<path d="M3578 723 c7 -3 16 -2 19 1 4 3 -2 6 -13 5 -11 0 -14 -3 -6 -6z"/>
<path d="M3916 713 c-6 -14 -5 -15 5 -6 7 7 10 15 7 18 -3 3 -9 -2 -12 -12z"/>
<path d="M3675 710 c-3 -6 1 -7 9 -4 18 7 21 14 7 14 -6 0 -13 -4 -16 -10z"/>
<path d="M1686 701 c-4 -5 -2 -12 3 -15 5 -4 12 -2 15 3 4 5 2 12 -3 15 -5 4
-12 2 -15 -3z"/>
<path d="M3458 703 c12 -2 32 -2 45 0 12 2 2 4 -23 4 -25 0 -35 -2 -22 -4z"/>
<path d="M3305 684 c-22 -9 -71 -24 -110 -34 -38 -10 -61 -19 -50 -19 28 -1
162 37 194 54 34 18 17 18 -34 -1z"/>
<path d="M1744 633 c-79 -65 -116 -100 -94 -88 18 10 170 137 170 142 0 7 -9
1 -76 -54z"/>
<path d="M1645 655 c-16 -14 -36 -23 -43 -20 -8 3 -10 0 -6 -7 4 -6 -7 -23
-27 -39 -19 -16 -29 -28 -24 -28 6 0 39 27 75 59 66 60 80 80 25 35z"/>
<path d="M2710 670 c-8 -5 -10 -10 -5 -10 6 0 17 5 25 10 8 5 11 10 5 10 -5 0
-17 -5 -25 -10z"/>
<path d="M2005 660 c3 -5 11 -10 16 -10 6 0 7 5 4 10 -3 6 -11 10 -16 10 -6 0
-7 -4 -4 -10z"/>
<path d="M1919 643 c-13 -16 -12 -17 4 -4 16 13 21 21 13 21 -2 0 -10 -8 -17
-17z"/>
<path d="M2620 640 c-25 -10 -36 -19 -25 -19 23 1 107 37 85 38 -8 0 -35 -9
-60 -19z"/>
<path d="M1950 630 c-8 -5 -11 -12 -8 -16 4 -3 14 1 23 10 18 17 9 21 -15 6z"/>
<path d="M3398 633 c7 -3 16 -2 19 1 4 3 -2 6 -13 5 -11 0 -14 -3 -6 -6z"/>
<path d="M1874 614 c-18 -14 -18 -15 4 -4 12 6 22 13 22 15 0 8 -5 6 -26 -11z"/>
<path d="M3080 620 c-13 -9 -13 -10 0 -10 8 0 22 5 30 10 13 9 13 10 0 10 -8
0 -22 -5 -30 -10z"/>
<path d="M3345 620 c-3 -5 -2 -10 4 -10 5 0 13 5 16 10 3 6 2 10 -4 10 -5 0
-13 -4 -16 -10z"/>
<path d="M1806 605 c-11 -8 -18 -17 -15 -19 2 -3 15 4 29 14 14 11 21 20 15
19 -5 0 -19 -6 -29 -14z"/>
<path d="M2548 613 c7 -3 16 -2 19 1 4 3 -2 6 -13 5 -11 0 -14 -3 -6 -6z"/>
<path d="M2933 572 c-57 -19 -101 -37 -99 -39 4 -4 217 65 225 73 11 10 -32
-1 -126 -34z"/>
<path d="M3308 603 c7 -3 16 -2 19 1 4 3 -2 6 -13 5 -11 0 -14 -3 -6 -6z"/>
<path d="M1450 589 c0 -5 5 -7 10 -4 6 3 10 8 10 11 0 2 -4 4 -10 4 -5 0 -10
-5 -10 -11z"/>
<path d="M2470 590 c-8 -5 -10 -10 -5 -10 6 0 17 5 25 10 8 5 11 10 5 10 -5 0
-17 -5 -25 -10z"/>
<path d="M1887 579 c7 -7 15 -10 18 -7 3 3 -2 9 -12 12 -14 6 -15 5 -6 -5z"/>
<path d="M1700 519 c-36 -33 -80 -70 -97 -82 -18 -12 -33 -25 -33 -30 0 -11
150 106 183 142 44 50 17 35 -53 -30z"/>
<path d="M1863 565 c0 -8 4 -12 9 -9 5 3 6 10 3 15 -9 13 -12 11 -12 -6z"/>
<path d="M1800 560 c-9 -6 -10 -10 -3 -10 6 0 15 5 18 10 8 12 4 12 -15 0z"/>
<path d="M3128 563 c7 -3 16 -2 19 1 4 3 -2 6 -13 5 -11 0 -14 -3 -6 -6z"/>
<path d="M1505 549 c7 -10 -23 -32 -34 -24 -7 4 -8 -1 -4 -11 5 -14 3 -16 -11
-11 -10 4 -15 3 -11 -3 7 -11 -112 -106 -131 -104 -8 1 -12 -2 -9 -6 4 -7 -32
-42 -127 -121 -22 -17 -42 -27 -49 -23 -7 4 -9 3 -6 -3 8 -13 -161 -145 -175
-137 -7 4 -8 3 -4 -4 8 -14 -30 -36 -46 -26 -6 4 -8 3 -5 -3 8 -13 -19 -38
-41 -38 -8 0 -16 -8 -18 -17 -3 -26 6 -23 66 27 54 45 78 57 64 32 -4 -7 -3
-9 2 -4 5 5 9 12 9 16 0 14 62 61 70 53 5 -4 5 -2 2 4 -6 11 51 51 66 46 5 -1
6 2 3 7 -8 13 60 62 77 55 8 -3 18 -1 22 5 4 7 -1 8 -12 4 -16 -6 -16 -5 -4
11 8 9 20 15 28 12 8 -3 12 -2 9 3 -8 13 21 34 35 25 8 -4 9 -3 5 4 -11 19 3
35 19 22 11 -10 13 -8 10 9 -5 25 11 37 30 21 10 -8 15 -8 21 1 4 7 3 9 -4 5
-6 -3 -13 -2 -17 4 -3 5 -3 10 2 10 4 0 26 16 48 35 38 33 49 39 68 36 5 -1 5
4 1 10 -5 9 -2 10 9 6 9 -3 16 -3 15 1 -2 4 10 19 25 34 30 30 34 45 12 45 -8
0 -12 -4 -10 -8z"/>
<path d="M1660 520 c-14 -10 -22 -21 -19 -24 3 -3 16 5 29 19 28 30 24 32 -10
5z"/>
<path d="M1760 530 c-8 -5 -10 -10 -5 -10 6 0 17 5 25 10 8 5 11 10 5 10 -5 0
-17 -5 -25 -10z"/>
<path d="M1589 499 c-19 -17 -65 -55 -104 -83 -38 -29 -77 -61 -85 -71 -8 -11
21 9 65 43 89 69 173 141 164 142 -3 0 -21 -14 -40 -31z"/>
<path d="M1782 500 c-18 -17 -28 -30 -22 -30 5 0 24 13 42 30 18 16 29 29 23
29 -5 0 -25 -13 -43 -29z"/>
<path d="M2714 510 c-102 -22 -123 -30 -59 -23 54 6 155 29 163 38 8 7 -13 4
-104 -15z"/>
<path d="M1604 471 c-11 -10 -42 -35 -69 -55 -130 -100 -157 -124 -149 -137 2
-4 -4 -13 -13 -20 -15 -12 -16 -12 -10 4 5 14 -1 12 -28 -8 -20 -16 -32 -32
-28 -41 3 -8 1 -14 -5 -14 -6 0 -12 4 -14 9 -1 5 -19 -4 -38 -21 -19 -17 -25
-25 -13 -19 12 6 25 16 28 21 3 6 12 10 18 10 7 0 -1 -12 -16 -25 -15 -14 -24
-25 -19 -25 19 0 162 124 152 130 -7 4 -5 12 5 20 12 10 19 10 23 3 5 -8 13
-7 27 4 20 15 20 15 -2 8 -13 -3 -23 -4 -23 -1 0 4 166 140 199 163 2 2 2 5
-1 8 -2 3 -13 -4 -24 -14z m-258 -236 c-11 -8 -25 -15 -30 -15 -6 0 -2 7 8 15
11 8 25 15 30 15 6 0 2 -7 -8 -15z"/>
<path d="M1826 475 c-11 -8 -15 -15 -9 -15 6 0 16 7 23 15 16 19 11 19 -14 0z"/>
<path d="M2493 473 c9 -2 25 -2 35 0 9 3 1 5 -18 5 -19 0 -27 -2 -17 -5z"/>
<path d="M2448 463 c7 -3 16 -2 19 1 4 3 -2 6 -13 5 -11 0 -14 -3 -6 -6z"/>
<path d="M1660 450 c-8 -5 -12 -12 -9 -15 4 -3 12 1 19 10 14 17 11 19 -10 5z"/>
<path d="M1655 405 c-39 -32 -28 -32 15 0 19 14 30 25 24 25 -5 0 -22 -11 -39
-25z"/>
<path d="M1510 365 c-23 -19 -38 -35 -33 -35 10 0 91 69 81 70 -3 0 -25 -16
-48 -35z"/>
<path d="M1556 365 c-11 -8 -15 -15 -9 -15 6 0 16 7 23 15 16 19 11 19 -14 0z"/>
<path d="M1239 343 c-13 -16 -12 -17 4 -4 16 13 21 21 13 21 -2 0 -10 -8 -17
-17z"/>
<path d="M2738 343 c12 -2 30 -2 40 0 9 3 -1 5 -23 4 -22 0 -30 -2 -17 -4z"/>
<path d="M1554 324 c-18 -14 -18 -15 4 -4 12 6 22 13 22 15 0 8 -5 6 -26 -11z"/>
<path d="M2170 330 c-8 -5 -10 -10 -5 -10 6 0 17 5 25 10 8 5 11 10 5 10 -5 0
-17 -5 -25 -10z"/>
<path d="M2513 333 c9 -2 25 -2 35 0 9 3 1 5 -18 5 -19 0 -27 -2 -17 -5z"/>
<path d="M1105 300 c-16 -16 -24 -30 -19 -30 6 0 23 14 39 30 16 17 24 30 19
30 -6 0 -23 -13 -39 -30z"/>
<path d="M1310 277 c-36 -29 -81 -64 -100 -77 -19 -13 -39 -28 -45 -33 -5 -4
-25 -19 -44 -32 -19 -14 -31 -25 -25 -25 15 0 165 112 258 192 53 47 24 30
-44 -25z"/>
<path d="M2375 305 c-40 -19 -16 -19 26 0 19 8 27 14 19 14 -8 0 -28 -7 -45
-14z"/>
<path d="M3540 299 c0 -5 5 -7 10 -4 6 3 10 8 10 11 0 2 -4 4 -10 4 -5 0 -10
-5 -10 -11z"/>
<path d="M1493 278 c-13 -6 -23 -15 -23 -20 0 -5 11 -1 25 8 37 24 35 30 -2
12z"/>
<path d="M2320 279 c0 -5 5 -7 10 -4 6 3 10 8 10 11 0 2 -4 4 -10 4 -5 0 -10
-5 -10 -11z"/>
<path d="M1559 263 c-13 -16 -12 -17 4 -4 16 13 21 21 13 21 -2 0 -10 -8 -17
-17z"/>
<path d="M3455 270 c-13 -6 -15 -9 -5 -9 8 0 22 4 30 9 18 12 2 12 -25 0z"/>
<path d="M3616 240 c-22 -17 -35 -30 -30 -30 10 0 83 59 74 59 -3 0 -23 -13
-44 -29z"/>
<path d="M1738 209 c-34 -32 -36 -36 -10 -18 17 12 32 26 32 29 0 4 10 12 23
18 12 6 17 11 10 11 -7 1 -31 -17 -55 -40z"/>
<path d="M3313 243 c9 -2 25 -2 35 0 9 3 1 5 -18 5 -19 0 -27 -2 -17 -5z"/>
<path d="M1363 214 c-20 -18 -22 -22 -7 -15 21 10 52 41 41 41 -3 0 -19 -12
-34 -26z"/>
<path d="M900 205 c-7 -8 -8 -15 -2 -15 5 0 15 7 22 15 7 8 8 15 2 15 -5 0
-15 -7 -22 -15z"/>
<path d="M1474 198 l-19 -23 23 19 c21 18 27 26 19 26 -2 0 -12 -10 -23 -22z"/>
<path d="M1386 195 c-11 -8 -15 -15 -9 -15 6 0 16 7 23 15 16 19 11 19 -14 0z"/>
<path d="M3105 190 c-16 -7 -17 -9 -3 -9 9 -1 20 4 23 9 7 11 7 11 -20 0z"/>
<path d="M2084 164 c-18 -14 -18 -14 6 -3 31 14 36 19 24 19 -6 0 -19 -7 -30
-16z"/>
<path d="M3428 163 c6 -2 18 -2 25 0 6 3 1 5 -13 5 -14 0 -19 -2 -12 -5z"/>
<path d="M1190 150 c-13 -9 -13 -11 0 -21 12 -9 11 -10 -6 -6 -14 3 -36 -7
-64 -29 -24 -19 -47 -34 -52 -34 -6 0 -7 -7 -4 -15 3 -10 1 -15 -7 -13 -6 1
-25 -5 -42 -14 -29 -16 -29 -17 -5 -14 14 2 37 8 52 14 30 12 49 35 21 26 -11
-4 -6 4 12 20 37 31 55 34 29 4 -16 -19 -16 -20 -1 -9 9 8 21 11 24 7 4 -4 1
-11 -7 -16 -8 -6 -10 -10 -5 -10 6 0 26 14 45 31 27 24 29 27 7 13 -38 -23
-45 -11 -8 15 17 13 29 30 28 41 -1 11 -1 20 -2 20 0 0 -7 -5 -15 -10z m-25
-50 c-3 -5 -11 -10 -16 -10 -6 0 -7 5 -4 10 3 6 11 10 16 10 6 0 7 -4 4 -10z"/>
<path d="M2968 153 c7 -3 16 -2 19 1 4 3 -2 6 -13 5 -11 0 -14 -3 -6 -6z"/>
<path d="M3378 153 c6 -2 18 -2 25 0 6 3 1 5 -13 5 -14 0 -19 -2 -12 -5z"/>
<path d="M2918 143 c6 -2 18 -2 25 0 6 3 1 5 -13 5 -14 0 -19 -2 -12 -5z"/>
<path d="M1285 120 c-3 -6 1 -7 9 -4 18 7 21 14 7 14 -6 0 -13 -4 -16 -10z"/>
<path d="M2663 123 c26 -2 68 -2 95 0 26 2 4 3 -48 3 -52 0 -74 -1 -47 -3z"/>
<path d="M3228 123 c7 -3 16 -2 19 1 4 3 -2 6 -13 5 -11 0 -14 -3 -6 -6z"/>
<path d="M3418 123 c6 -2 18 -2 25 0 6 3 1 5 -13 5 -14 0 -19 -2 -12 -5z"/>
<path d="M1346 105 c-11 -8 -15 -15 -9 -15 6 0 16 7 23 15 16 19 11 19 -14 0z"/>
<path d="M1826 105 c-11 -8 -15 -15 -9 -15 6 0 16 7 23 15 16 19 11 19 -14 0z"/>
<path d="M1995 109 c-4 -6 -5 -12 -2 -15 2 -3 7 2 10 11 7 17 1 20 -8 4z"/>
<path d="M3328 113 c7 -3 16 -2 19 1 4 3 -2 6 -13 5 -11 0 -14 -3 -6 -6z"/>
<path d="M2390 100 c-9 -6 -10 -10 -3 -10 6 0 15 5 18 10 8 12 4 12 -15 0z"/>
<path d="M3270 100 c-8 -5 -10 -10 -5 -10 6 0 17 5 25 10 8 5 11 10 5 10 -5 0
-17 -5 -25 -10z"/>
<path d="M1060 90 c-9 -6 -10 -10 -3 -10 6 0 15 5 18 10 8 12 4 12 -15 0z"/>
<path d="M1746 75 c-11 -8 -15 -15 -9 -15 6 0 16 7 23 15 16 19 11 19 -14 0z"/>
<path d="M3228 83 c7 -3 16 -2 19 1 4 3 -2 6 -13 5 -11 0 -14 -3 -6 -6z"/>
<path d="M2310 70 c-9 -6 -10 -10 -3 -10 6 0 15 5 18 10 8 12 4 12 -15 0z"/>
<path d="M1014 55 c-10 -8 -14 -14 -9 -14 6 0 19 6 29 14 11 8 15 15 10 15 -6
0 -19 -7 -30 -15z"/>
<path d="M1539 53 c-13 -16 -12 -17 4 -4 16 13 21 21 13 21 -2 0 -10 -8 -17
-17z"/>
<path d="M919 43 c-13 -16 -12 -17 4 -4 9 7 17 15 17 17 0 8 -8 3 -21 -13z"/>
<path d="M1734 34 c-18 -14 -18 -15 4 -4 12 6 22 13 22 15 0 8 -5 6 -26 -11z"/>
<path d="M2923 33 c9 -2 23 -2 30 0 6 3 -1 5 -18 5 -16 0 -22 -2 -12 -5z"/>
<path d="M2493 23 c9 -2 23 -2 30 0 6 3 -1 5 -18 5 -16 0 -22 -2 -12 -5z"/>
<path d="M800 10 c-9 -6 -10 -10 -3 -10 6 0 15 5 18 10 8 12 4 12 -15 0z"/>
</g>
</svg>
